G04*
G04 #@! TF.GenerationSoftware,Altium Limited,Altium Designer,23.8.1 (32)*
G04*
G04 Layer_Color=32768*
%FSLAX44Y44*%
%MOMM*%
G71*
G04*
G04 #@! TF.SameCoordinates,2C0D8033-C631-4263-A1FA-4DCE3A031024*
G04*
G04*
G04 #@! TF.FilePolarity,Positive*
G04*
G01*
G75*
%ADD62C,0.1000*%
%ADD63C,0.0500*%
D62*
X1111838Y900938D02*
X1121838D01*
X1116838Y895938D02*
Y905938D01*
X1062562Y901954D02*
X1072562D01*
X1067562Y896954D02*
Y906954D01*
D63*
X1480280Y1213358D02*
G03*
X1480280Y1213358I-34000J0D01*
G01*
X1273520Y989076D02*
G03*
X1273520Y989076I-34000J0D01*
G01*
X1131612Y1597910D02*
G03*
X1131612Y1597910I-82500J0D01*
G01*
X963626Y1597914D02*
G03*
X963626Y1597914I-82500J0D01*
G01*
X1000470Y1060904D02*
G03*
X1000470Y1060904I-34000J0D01*
G01*
X1073876Y1061466D02*
G03*
X1073876Y1061466I-34000J0D01*
G01*
X1138838Y900938D02*
G03*
X1138838Y900938I-22000J0D01*
G01*
X1089562Y901954D02*
G03*
X1089562Y901954I-22000J0D01*
G01*
X1480276Y975052D02*
G03*
X1480276Y975052I-34000J0D01*
G01*
X1480280Y1138882D02*
G03*
X1480280Y1138882I-34000J0D01*
G01*
Y1059126D02*
G03*
X1480280Y1059126I-34000J0D01*
G01*
X1280378Y838200D02*
G03*
X1280378Y838200I-34000J0D01*
G01*
X1273520Y1173280D02*
G03*
X1273520Y1173280I-34000J0D01*
G01*
Y1080770D02*
G03*
X1273520Y1080770I-34000J0D01*
G01*
X710484Y847812D02*
X821134D01*
Y690412D02*
Y847812D01*
X710484Y690412D02*
X821134D01*
X710484D02*
Y847812D01*
X730296Y847810D02*
X840946D01*
Y690410D02*
Y847810D01*
X730296Y690410D02*
X840946D01*
X730296D02*
Y847810D01*
X1369754Y710210D02*
Y790210D01*
Y710210D02*
X1474754D01*
Y790210D01*
X1369754D02*
X1474754D01*
X1488680Y694830D02*
Y1182430D01*
X1772680Y694830D02*
Y1182430D01*
X1723180D02*
X1772680D01*
X1488680D02*
X1538180D01*
Y1244130D01*
X1723180D01*
Y1182430D02*
Y1244130D01*
X1488680Y694830D02*
X1587480D01*
Y686130D02*
Y694830D01*
Y686130D02*
X1673780D01*
Y694830D01*
X1772680D01*
X1632454Y1242062D02*
Y1274062D01*
X1504954Y1242062D02*
X1632454D01*
X1504954D02*
Y1274062D01*
X1632454D01*
X1007932Y859164D02*
X1034932D01*
X1007932Y852164D02*
Y859164D01*
X934932Y852164D02*
X1007932D01*
X934932D02*
Y859164D01*
X907932D02*
X934932D01*
X907932D02*
Y876164D01*
X934932D01*
Y883164D01*
X1007932D01*
Y876164D02*
Y883164D01*
Y876164D02*
X1034932D01*
Y859164D02*
Y876164D01*
X1008050Y826144D02*
X1035050D01*
X1008050Y819144D02*
Y826144D01*
X935050Y819144D02*
X1008050D01*
X935050D02*
Y826144D01*
X908050D02*
X935050D01*
X908050D02*
Y843144D01*
X935050D01*
Y850144D01*
X1008050D01*
Y843144D02*
Y850144D01*
Y843144D02*
X1035050D01*
Y826144D02*
Y843144D01*
X1643208Y1336758D02*
X1685208D01*
X1643208Y1267758D02*
Y1336758D01*
Y1267758D02*
X1685208D01*
Y1336758D01*
X1136514Y1076630D02*
Y1103630D01*
Y1076630D02*
X1143514D01*
Y1003630D02*
Y1076630D01*
X1136514Y1003630D02*
X1143514D01*
X1136514Y976630D02*
Y1003630D01*
X1119514Y976630D02*
X1136514D01*
X1119514D02*
Y1003630D01*
X1112514D02*
X1119514D01*
X1112514D02*
Y1076630D01*
X1119514D01*
Y1103630D01*
X1136514D01*
X859536Y1232272D02*
X886536D01*
Y1239272D01*
X959536D01*
Y1232272D02*
Y1239272D01*
Y1232272D02*
X986536D01*
Y1215272D02*
Y1232272D01*
X959536Y1215272D02*
X986536D01*
X959536Y1208272D02*
Y1215272D01*
X886536Y1208272D02*
X959536D01*
X886536D02*
Y1215272D01*
X859536D02*
X886536D01*
X859536D02*
Y1232272D01*
X959538Y1257436D02*
X986538D01*
X959538Y1250436D02*
Y1257436D01*
X886538Y1250436D02*
X959538D01*
X886538D02*
Y1257436D01*
X859538D02*
X886538D01*
X859538D02*
Y1274436D01*
X886538D01*
Y1281436D01*
X959538D01*
Y1274436D02*
Y1281436D01*
Y1274436D02*
X986538D01*
Y1257436D02*
Y1274436D01*
X1472048Y897052D02*
Y924052D01*
Y897052D02*
X1479048D01*
Y824052D02*
Y897052D01*
X1472048Y824052D02*
X1479048D01*
X1472048Y797052D02*
Y824052D01*
X1455048Y797052D02*
X1472048D01*
X1455048D02*
Y824052D01*
X1448048D02*
X1455048D01*
X1448048D02*
Y897052D01*
X1455048D01*
Y924052D01*
X1472048D01*
X1414408Y797052D02*
Y824052D01*
X1407408D02*
X1414408D01*
X1407408D02*
Y897052D01*
X1414408D01*
Y924052D01*
X1431408D01*
Y897052D02*
Y924052D01*
Y897052D02*
X1438408D01*
Y824052D02*
Y897052D01*
X1431408Y824052D02*
X1438408D01*
X1431408Y797052D02*
Y824052D01*
X1414408Y797052D02*
X1431408D01*
X1697400Y1254076D02*
Y1359076D01*
X1777400D01*
Y1254076D02*
Y1359076D01*
X1697400Y1254076D02*
X1777400D01*
X1287362Y1032134D02*
Y1239134D01*
X1381162D01*
Y1032134D02*
Y1239134D01*
X1287362Y1032134D02*
X1381162D01*
X1288124Y817758D02*
Y1024758D01*
X1381924D01*
Y817758D02*
Y1024758D01*
X1288124Y817758D02*
X1381924D01*
X1159480Y790210D02*
X1264480D01*
Y710210D02*
Y790210D01*
X1159480Y710210D02*
X1264480D01*
X1159480D02*
Y790210D01*
X1264598D02*
X1369598D01*
Y710210D02*
Y790210D01*
X1264598Y710210D02*
X1369598D01*
X1264598D02*
Y790210D01*
X1395554Y1584624D02*
X1500554D01*
X1395554D02*
Y1664624D01*
X1500554D01*
Y1584624D02*
Y1664624D01*
X1290544Y1584624D02*
X1395544D01*
X1290544D02*
Y1664624D01*
X1395544D01*
Y1584624D02*
Y1664624D01*
X1185388Y1584624D02*
X1290388D01*
X1185388D02*
Y1664624D01*
X1290388D01*
Y1584624D02*
Y1664624D01*
X1645290Y1366990D02*
X1777290D01*
Y1661990D01*
X1645290D02*
X1777290D01*
X1645290Y1366990D02*
Y1661990D01*
X949710Y1189226D02*
X1077210D01*
X949710Y1157226D02*
Y1189226D01*
Y1157226D02*
X1077210D01*
Y1189226D01*
X1049960Y1129166D02*
X1076960D01*
X1049960Y1122166D02*
Y1129166D01*
X976960Y1122166D02*
X1049960D01*
X976960D02*
Y1129166D01*
X949960D02*
X976960D01*
X949960D02*
Y1146166D01*
X976960D01*
Y1153166D01*
X1049960D01*
Y1146166D02*
Y1153166D01*
Y1146166D02*
X1076960D01*
Y1129166D02*
Y1146166D01*
X1500564Y1584624D02*
X1605564D01*
X1500564D02*
Y1664624D01*
X1605564D01*
Y1584624D02*
Y1664624D01*
X1034206Y1252152D02*
Y1357152D01*
X1114206D01*
Y1252152D02*
Y1357152D01*
X1034206Y1252152D02*
X1114206D01*
X943360Y1011934D02*
X1070860D01*
X943360Y979934D02*
Y1011934D01*
Y979934D02*
X1070860D01*
Y1011934D01*
X1043610Y950604D02*
X1070610D01*
X1043610Y943604D02*
Y950604D01*
X970610Y943604D02*
X1043610D01*
X970610D02*
Y950604D01*
X943610D02*
X970610D01*
X943610D02*
Y967604D01*
X970610D01*
Y974604D01*
X1043610D01*
Y967604D02*
Y974604D01*
Y967604D02*
X1070610D01*
Y950604D02*
Y967604D01*
X879289Y1085377D02*
Y1194527D01*
X928739D01*
Y1085377D02*
Y1194527D01*
X879289Y1085377D02*
X928739D01*
X876749Y922817D02*
X926199D01*
Y1031967D01*
X876749D02*
X926199D01*
X876749Y922817D02*
Y1031967D01*
X1153160Y939918D02*
X1180160D01*
Y946918D01*
X1253160D01*
Y939918D02*
Y946918D01*
Y939918D02*
X1280160D01*
Y922918D02*
Y939918D01*
X1253160Y922918D02*
X1280160D01*
X1253160Y915918D02*
Y922918D01*
X1180160Y915918D02*
X1253160D01*
X1180160D02*
Y922918D01*
X1153160D02*
X1180160D01*
X1153160D02*
Y939918D01*
X1254430Y888374D02*
X1281430D01*
X1254430Y881374D02*
Y888374D01*
X1181430Y881374D02*
X1254430D01*
X1181430D02*
Y888374D01*
X1154430D02*
X1181430D01*
X1154430D02*
Y905374D01*
X1181430D01*
Y912374D01*
X1254430D01*
Y905374D02*
Y912374D01*
Y905374D02*
X1281430D01*
Y888374D02*
Y905374D01*
X1103494Y1076630D02*
Y1103630D01*
Y1076630D02*
X1110494D01*
Y1003630D02*
Y1076630D01*
X1103494Y1003630D02*
X1110494D01*
X1103494Y976630D02*
Y1003630D01*
X1086494Y976630D02*
X1103494D01*
X1086494D02*
Y1003630D01*
X1079494D02*
X1086494D01*
X1079494D02*
Y1076630D01*
X1086494D01*
Y1103630D01*
X1103494D01*
X1054578Y790210D02*
X1159578D01*
Y710210D02*
Y790210D01*
X1054578Y710210D02*
X1159578D01*
X1054578D02*
Y790210D01*
X949638D02*
X1054638D01*
Y710210D02*
Y790210D01*
X949638Y710210D02*
X1054638D01*
X949638D02*
Y790210D01*
X844520D02*
X949520D01*
Y710210D02*
Y790210D01*
X844520Y710210D02*
X949520D01*
X844520D02*
Y790210D01*
X860044Y1312028D02*
X887044D01*
Y1319028D01*
X960044D01*
Y1312028D02*
Y1319028D01*
Y1312028D02*
X987044D01*
Y1295028D02*
Y1312028D01*
X960044Y1295028D02*
X987044D01*
X960044Y1288028D02*
Y1295028D01*
X887044Y1288028D02*
X960044D01*
X887044D02*
Y1295028D01*
X860044D02*
X887044D01*
X860044D02*
Y1312028D01*
Y1356478D02*
X887044D01*
Y1363478D01*
X960044D01*
Y1356478D02*
Y1363478D01*
Y1356478D02*
X987044D01*
Y1339478D02*
Y1356478D01*
X960044Y1339478D02*
X987044D01*
X960044Y1332478D02*
Y1339478D01*
X887044Y1332478D02*
X960044D01*
X887044D02*
Y1339478D01*
X860044D02*
X887044D01*
X860044D02*
Y1356478D01*
M02*
