G04*
G04 #@! TF.GenerationSoftware,Altium Limited,Altium Designer,23.8.1 (32)*
G04*
G04 Layer_Color=128*
%FSLAX44Y44*%
%MOMM*%
G71*
G04*
G04 #@! TF.SameCoordinates,2C0D8033-C631-4263-A1FA-4DCE3A031024*
G04*
G04*
G04 #@! TF.FilePolarity,Positive*
G04*
G01*
G75*
%ADD11C,0.1270*%
D11*
X1455030Y1213358D02*
X1462530D01*
X1458780Y1209608D02*
Y1217108D01*
X1430030Y1213358D02*
X1437530D01*
X1433780Y1209608D02*
Y1217108D01*
X1235770Y1001576D02*
X1243270D01*
X1239520Y997826D02*
Y1005326D01*
X1235770Y976576D02*
X1243270D01*
X1239520Y972826D02*
Y980326D01*
X806684Y705612D02*
X816884D01*
X811784Y700512D02*
Y710712D01*
X806684Y731012D02*
X816884D01*
X811784Y725912D02*
Y736112D01*
X806684Y756412D02*
X816884D01*
X811784Y751312D02*
Y761512D01*
X806684Y781812D02*
X816884D01*
X811784Y776712D02*
Y786912D01*
X806684Y807212D02*
X816884D01*
X811784Y802112D02*
Y812312D01*
X806684Y832612D02*
X816884D01*
X811784Y827512D02*
Y837712D01*
X826496Y705610D02*
X836696D01*
X831596Y700510D02*
Y710710D01*
X826496Y731010D02*
X836696D01*
X831596Y725910D02*
Y736110D01*
X826496Y756410D02*
X836696D01*
X831596Y751310D02*
Y761510D01*
X826496Y781810D02*
X836696D01*
X831596Y776710D02*
Y786910D01*
X826496Y807210D02*
X836696D01*
X831596Y802110D02*
Y812310D01*
X826496Y832610D02*
X836696D01*
X831596Y827510D02*
Y837710D01*
X1440254Y747710D02*
X1454254D01*
X1447254Y740710D02*
Y754710D01*
X1390254Y747710D02*
X1404254D01*
X1397254Y740710D02*
Y754710D01*
X1006362Y1597910D02*
X1016862D01*
X1011612Y1592660D02*
Y1603160D01*
X1081362Y1597910D02*
X1091862D01*
X1086612Y1592660D02*
Y1603160D01*
X838376Y1597914D02*
X848876D01*
X843626Y1592664D02*
Y1603164D01*
X913376Y1597914D02*
X923876D01*
X918626Y1592664D02*
Y1603164D01*
X1498580Y1167130D02*
X1508780D01*
X1503680Y1162030D02*
Y1172230D01*
X1498580Y1141730D02*
X1508780D01*
X1503680Y1136630D02*
Y1146830D01*
X1498580Y1116330D02*
X1508780D01*
X1503680Y1111230D02*
Y1121430D01*
X1498580Y1090930D02*
X1508780D01*
X1503680Y1085830D02*
Y1096030D01*
X1498580Y1065530D02*
X1508780D01*
X1503680Y1060430D02*
Y1070630D01*
X1498580Y1040130D02*
X1508780D01*
X1503680Y1035030D02*
Y1045230D01*
X1498580Y1014730D02*
X1508780D01*
X1503680Y1009630D02*
Y1019830D01*
X1498580Y989330D02*
X1508780D01*
X1503680Y984230D02*
Y994430D01*
X1498580Y963930D02*
X1508780D01*
X1503680Y958830D02*
Y969030D01*
X1498580Y938530D02*
X1508780D01*
X1503680Y933430D02*
Y943630D01*
X1498580Y913130D02*
X1508780D01*
X1503680Y908030D02*
Y918230D01*
X1498580Y887730D02*
X1508780D01*
X1503680Y882630D02*
Y892830D01*
X1498580Y862330D02*
X1508780D01*
X1503680Y857230D02*
Y867430D01*
X1498580Y836930D02*
X1508780D01*
X1503680Y831830D02*
Y842030D01*
X1498580Y811530D02*
X1508780D01*
X1503680Y806430D02*
Y816630D01*
X1498580Y786130D02*
X1508780D01*
X1503680Y781030D02*
Y791230D01*
X1498580Y760730D02*
X1508780D01*
X1503680Y755630D02*
Y765830D01*
X1498580Y735330D02*
X1508780D01*
X1503680Y730230D02*
Y740430D01*
X1498580Y709930D02*
X1508780D01*
X1503680Y704830D02*
Y715030D01*
X1752580Y709930D02*
X1762780D01*
X1757680Y704830D02*
Y715030D01*
X1752580Y735330D02*
X1762780D01*
X1757680Y730230D02*
Y740430D01*
X1752580Y760730D02*
X1762780D01*
X1757680Y755630D02*
Y765830D01*
X1752580Y786130D02*
X1762780D01*
X1757680Y781030D02*
Y791230D01*
X1752580Y811530D02*
X1762780D01*
X1757680Y806430D02*
Y816630D01*
X1752580Y836930D02*
X1762780D01*
X1757680Y831830D02*
Y842030D01*
X1752580Y862330D02*
X1762780D01*
X1757680Y857230D02*
Y867430D01*
X1752580Y887730D02*
X1762780D01*
X1757680Y882630D02*
Y892830D01*
X1752580Y913130D02*
X1762780D01*
X1757680Y908030D02*
Y918230D01*
X1752580Y938530D02*
X1762780D01*
X1757680Y933430D02*
Y943630D01*
X1752580Y963930D02*
X1762780D01*
X1757680Y958830D02*
Y969030D01*
X1752580Y989330D02*
X1762780D01*
X1757680Y984230D02*
Y994430D01*
X1752580Y1014730D02*
X1762780D01*
X1757680Y1009630D02*
Y1019830D01*
X1752580Y1040130D02*
X1762780D01*
X1757680Y1035030D02*
Y1045230D01*
X1752580Y1065530D02*
X1762780D01*
X1757680Y1060430D02*
Y1070630D01*
X1752580Y1090930D02*
X1762780D01*
X1757680Y1085830D02*
Y1096030D01*
X1752580Y1116330D02*
X1762780D01*
X1757680Y1111230D02*
Y1121430D01*
X1752580Y1141730D02*
X1762780D01*
X1757680Y1136630D02*
Y1146830D01*
X1752580Y1167130D02*
X1762780D01*
X1757680Y1162030D02*
Y1172230D01*
X1616204Y1258062D02*
X1627204D01*
X1621704Y1252562D02*
Y1263562D01*
X1510204Y1258062D02*
X1521204D01*
X1515704Y1252562D02*
Y1263562D01*
X962720Y1048404D02*
X970220D01*
X966470Y1044654D02*
Y1052154D01*
X962720Y1073404D02*
X970220D01*
X966470Y1069654D02*
Y1077154D01*
X1036126Y1048966D02*
X1043626D01*
X1039876Y1045216D02*
Y1052716D01*
X1036126Y1073966D02*
X1043626D01*
X1039876Y1070216D02*
Y1077716D01*
X1468374Y1267460D02*
X1473454D01*
X1470914Y1264920D02*
Y1270000D01*
X1108964Y1196594D02*
X1116584D01*
X1112774Y1192784D02*
Y1200404D01*
X1134364Y1196594D02*
X1141984D01*
X1138174Y1192784D02*
Y1200404D01*
X1420980Y1333500D02*
X1433980D01*
X1427480Y1327000D02*
Y1340000D01*
X1112338Y913638D02*
X1121338D01*
X1116838Y909138D02*
Y918138D01*
X1112338Y888238D02*
X1121338D01*
X1116838Y883738D02*
Y892738D01*
X1063062Y914654D02*
X1072062D01*
X1067562Y910154D02*
Y919154D01*
X1063062Y889254D02*
X1072062D01*
X1067562Y884754D02*
Y893754D01*
X1022432Y867664D02*
X1030432D01*
X1026432Y863664D02*
Y871664D01*
X912432Y867664D02*
X920432D01*
X916432Y863664D02*
Y871664D01*
X1022550Y834644D02*
X1030550D01*
X1026550Y830644D02*
Y838644D01*
X912550Y834644D02*
X920550D01*
X916550Y830644D02*
Y838644D01*
X1653008Y1327258D02*
X1662308D01*
X1657658Y1322608D02*
Y1331908D01*
X1653008Y1302258D02*
X1662308D01*
X1657658Y1297608D02*
Y1306908D01*
X1653008Y1277258D02*
X1662308D01*
X1657658Y1272608D02*
Y1281908D01*
X1124014Y1095130D02*
X1132014D01*
X1128014Y1091130D02*
Y1099130D01*
X1124014Y985130D02*
X1132014D01*
X1128014Y981130D02*
Y989130D01*
X1155446Y1660650D02*
X1160526D01*
X1157986Y1658110D02*
Y1663190D01*
X1620774Y1660652D02*
X1625854D01*
X1623314Y1658112D02*
Y1663192D01*
X1180592Y1122680D02*
X1185672D01*
X1183132Y1120140D02*
Y1125220D01*
X864036Y1223772D02*
X872036D01*
X868036Y1219772D02*
Y1227772D01*
X974036Y1223772D02*
X982036D01*
X978036Y1219772D02*
Y1227772D01*
X974038Y1265936D02*
X982038D01*
X978038Y1261936D02*
Y1269936D01*
X864038Y1265936D02*
X872038D01*
X868038Y1261936D02*
Y1269936D01*
X1187704Y822960D02*
X1192784D01*
X1190244Y820420D02*
Y825500D01*
X1477010Y701548D02*
X1482090D01*
X1479550Y699008D02*
Y704088D01*
X1187700Y859282D02*
X1192780D01*
X1190240Y856742D02*
Y861822D01*
X1442526Y987552D02*
X1450026D01*
X1446276Y983802D02*
Y991302D01*
X1442526Y962552D02*
X1450026D01*
X1446276Y958802D02*
Y966302D01*
X1391666Y941578D02*
X1396746D01*
X1394206Y939038D02*
Y944118D01*
X1442530Y1151382D02*
X1450030D01*
X1446280Y1147632D02*
Y1155132D01*
X1442530Y1126382D02*
X1450030D01*
X1446280Y1122632D02*
Y1130132D01*
X1442530Y1071626D02*
X1450030D01*
X1446280Y1067876D02*
Y1075376D01*
X1442530Y1046626D02*
X1450030D01*
X1446280Y1042876D02*
Y1050376D01*
X1459548Y915552D02*
X1467548D01*
X1463548Y911552D02*
Y919552D01*
X1459548Y805552D02*
X1467548D01*
X1463548Y801552D02*
Y809552D01*
X1418908Y805552D02*
X1426908D01*
X1422908Y801552D02*
Y809552D01*
X1418908Y915552D02*
X1426908D01*
X1422908Y911552D02*
Y919552D01*
X1255128Y838200D02*
X1262628D01*
X1258878Y834450D02*
Y841950D01*
X1230128Y838200D02*
X1237628D01*
X1233878Y834450D02*
Y841950D01*
X1732900Y1281576D02*
X1746900D01*
X1739900Y1274576D02*
Y1288576D01*
X1732900Y1331576D02*
X1746900D01*
X1739900Y1324576D02*
Y1338576D01*
X1292012Y1211834D02*
X1300312D01*
X1296162Y1207684D02*
Y1215984D01*
X1292012Y1186434D02*
X1300312D01*
X1296162Y1182284D02*
Y1190584D01*
X1292012Y1161034D02*
X1300312D01*
X1296162Y1156884D02*
Y1165184D01*
X1292012Y1135634D02*
X1300312D01*
X1296162Y1131484D02*
Y1139784D01*
X1292012Y1110234D02*
X1300312D01*
X1296162Y1106084D02*
Y1114384D01*
X1292012Y1084834D02*
X1300312D01*
X1296162Y1080684D02*
Y1088984D01*
X1292012Y1059434D02*
X1300312D01*
X1296162Y1055284D02*
Y1063584D01*
X1368212Y1059434D02*
X1376512D01*
X1372362Y1055284D02*
Y1063584D01*
X1368212Y1084834D02*
X1376512D01*
X1372362Y1080684D02*
Y1088984D01*
X1368212Y1110234D02*
X1376512D01*
X1372362Y1106084D02*
Y1114384D01*
X1368212Y1135634D02*
X1376512D01*
X1372362Y1131484D02*
Y1139784D01*
X1368212Y1161034D02*
X1376512D01*
X1372362Y1156884D02*
Y1165184D01*
X1368212Y1186434D02*
X1376512D01*
X1372362Y1182284D02*
Y1190584D01*
X1368212Y1211834D02*
X1376512D01*
X1372362Y1207684D02*
Y1215984D01*
X1292774Y997458D02*
X1301074D01*
X1296924Y993308D02*
Y1001608D01*
X1292774Y972058D02*
X1301074D01*
X1296924Y967908D02*
Y976208D01*
X1292774Y946658D02*
X1301074D01*
X1296924Y942508D02*
Y950808D01*
X1292774Y921258D02*
X1301074D01*
X1296924Y917108D02*
Y925408D01*
X1292774Y895858D02*
X1301074D01*
X1296924Y891708D02*
Y900008D01*
X1292774Y870458D02*
X1301074D01*
X1296924Y866308D02*
Y874608D01*
X1292774Y845058D02*
X1301074D01*
X1296924Y840908D02*
Y849208D01*
X1368974Y845058D02*
X1377274D01*
X1373124Y840908D02*
Y849208D01*
X1368974Y870458D02*
X1377274D01*
X1373124Y866308D02*
Y874608D01*
X1368974Y895858D02*
X1377274D01*
X1373124Y891708D02*
Y900008D01*
X1368974Y921258D02*
X1377274D01*
X1373124Y917108D02*
Y925408D01*
X1368974Y946658D02*
X1377274D01*
X1373124Y942508D02*
Y950808D01*
X1368974Y972058D02*
X1377274D01*
X1373124Y967908D02*
Y976208D01*
X1368974Y997458D02*
X1377274D01*
X1373124Y993308D02*
Y1001608D01*
X1235770Y1185780D02*
X1243270D01*
X1239520Y1182030D02*
Y1189530D01*
X1235770Y1160780D02*
X1243270D01*
X1239520Y1157030D02*
Y1164530D01*
X1179980Y747710D02*
X1193980D01*
X1186980Y740710D02*
Y754710D01*
X1229980Y747710D02*
X1243980D01*
X1236980Y740710D02*
Y754710D01*
X1285098Y747710D02*
X1299098D01*
X1292098Y740710D02*
Y754710D01*
X1335098Y747710D02*
X1349098D01*
X1342098Y740710D02*
Y754710D01*
X1466054Y1627124D02*
X1480054D01*
X1473054Y1620124D02*
Y1634124D01*
X1416054Y1627124D02*
X1430054D01*
X1423054Y1620124D02*
Y1634124D01*
X1361044Y1627124D02*
X1375044D01*
X1368044Y1620124D02*
Y1634124D01*
X1311044Y1627124D02*
X1325044D01*
X1318044Y1620124D02*
Y1634124D01*
X1255888Y1627124D02*
X1269888D01*
X1262888Y1620124D02*
Y1634124D01*
X1205888Y1627124D02*
X1219888D01*
X1212888Y1620124D02*
Y1634124D01*
X1667290Y1392990D02*
X1680290D01*
X1673790Y1386490D02*
Y1399490D01*
X1742290Y1392990D02*
X1755290D01*
X1748790Y1386490D02*
Y1399490D01*
X1667290Y1595990D02*
X1680290D01*
X1673790Y1589490D02*
Y1602490D01*
X1742290Y1595990D02*
X1755290D01*
X1748790Y1589490D02*
Y1602490D01*
X1667290Y1545590D02*
X1680290D01*
X1673790Y1539090D02*
Y1552090D01*
X1742290Y1545590D02*
X1755290D01*
X1748790Y1539090D02*
Y1552090D01*
X1667290Y1646390D02*
X1680290D01*
X1673790Y1639890D02*
Y1652890D01*
X1742290Y1646390D02*
X1755290D01*
X1748790Y1639890D02*
Y1652890D01*
X954960Y1173226D02*
X965960D01*
X960460Y1167726D02*
Y1178726D01*
X1060960Y1173226D02*
X1071960D01*
X1066460Y1167726D02*
Y1178726D01*
X1064460Y1137666D02*
X1072460D01*
X1068460Y1133666D02*
Y1141666D01*
X954460Y1137666D02*
X962460D01*
X958460Y1133666D02*
Y1141666D01*
X1571064Y1627124D02*
X1585064D01*
X1578064Y1620124D02*
Y1634124D01*
X1521064Y1627124D02*
X1535064D01*
X1528064Y1620124D02*
Y1634124D01*
X1208382Y1343406D02*
X1221382D01*
X1214882Y1336906D02*
Y1349906D01*
X1208382Y1470406D02*
X1221382D01*
X1214882Y1463906D02*
Y1476906D01*
X1408280Y1483106D02*
X1421280D01*
X1414780Y1476606D02*
Y1489606D01*
X1535280Y1483106D02*
X1548280D01*
X1541780Y1476606D02*
Y1489606D01*
X1344780Y1333500D02*
X1357780D01*
X1351280Y1327000D02*
Y1340000D01*
X1492354Y1333754D02*
X1505354D01*
X1498854Y1327254D02*
Y1340254D01*
X1568554Y1333754D02*
X1581554D01*
X1575054Y1327254D02*
Y1340254D01*
X1107186Y1140968D02*
X1114806D01*
X1110996Y1137158D02*
Y1144778D01*
X1132586Y1140968D02*
X1140206D01*
X1136396Y1137158D02*
Y1144778D01*
X1069706Y1279652D02*
X1083706D01*
X1076706Y1272652D02*
Y1286652D01*
X1069706Y1329652D02*
X1083706D01*
X1076706Y1322652D02*
Y1336652D01*
X948610Y995934D02*
X959610D01*
X954110Y990434D02*
Y1001434D01*
X1054610Y995934D02*
X1065610D01*
X1060110Y990434D02*
Y1001434D01*
X1058110Y959104D02*
X1066110D01*
X1062110Y955104D02*
Y963104D01*
X948110Y959104D02*
X956110D01*
X952110Y955104D02*
Y963104D01*
X905964Y1165352D02*
X918264D01*
X912114Y1159202D02*
Y1171502D01*
X905964Y1139952D02*
X918264D01*
X912114Y1133802D02*
Y1146102D01*
X905964Y1114552D02*
X918264D01*
X912114Y1108402D02*
Y1120702D01*
X903424Y951992D02*
X915724D01*
X909574Y945842D02*
Y958142D01*
X903424Y977392D02*
X915724D01*
X909574Y971242D02*
Y983542D01*
X903424Y1002792D02*
X915724D01*
X909574Y996642D02*
Y1008942D01*
X1157660Y931418D02*
X1165660D01*
X1161660Y927418D02*
Y935418D01*
X1267660Y931418D02*
X1275660D01*
X1271660Y927418D02*
Y935418D01*
X1268930Y896874D02*
X1276930D01*
X1272930Y892874D02*
Y900874D01*
X1158930Y896874D02*
X1166930D01*
X1162930Y892874D02*
Y900874D01*
X1090994Y1095130D02*
X1098994D01*
X1094994Y1091130D02*
Y1099130D01*
X1090994Y985130D02*
X1098994D01*
X1094994Y981130D02*
Y989130D01*
X1075078Y747710D02*
X1089078D01*
X1082078Y740710D02*
Y754710D01*
X1125078Y747710D02*
X1139078D01*
X1132078Y740710D02*
Y754710D01*
X970138Y747710D02*
X984138D01*
X977138Y740710D02*
Y754710D01*
X1020138Y747710D02*
X1034138D01*
X1027138Y740710D02*
Y754710D01*
X865020Y747710D02*
X879020D01*
X872020Y740710D02*
Y754710D01*
X915020Y747710D02*
X929020D01*
X922020Y740710D02*
Y754710D01*
X864544Y1303528D02*
X872544D01*
X868544Y1299528D02*
Y1307528D01*
X974544Y1303528D02*
X982544D01*
X978544Y1299528D02*
Y1307528D01*
X864544Y1347978D02*
X872544D01*
X868544Y1343978D02*
Y1351978D01*
X974544Y1347978D02*
X982544D01*
X978544Y1343978D02*
Y1351978D01*
X1235770Y1093270D02*
X1243270D01*
X1239520Y1089520D02*
Y1097020D01*
X1235770Y1068270D02*
X1243270D01*
X1239520Y1064520D02*
Y1072020D01*
X1765000Y1650000D02*
X1785000D01*
X1775000Y1640000D02*
Y1660000D01*
X1765000Y1600000D02*
X1785000D01*
X1775000Y1590000D02*
Y1610000D01*
X1765000Y1550000D02*
X1785000D01*
X1775000Y1540000D02*
Y1560000D01*
X1765000Y1500000D02*
X1785000D01*
X1775000Y1490000D02*
Y1510000D01*
X1765000Y1450000D02*
X1785000D01*
X1775000Y1440000D02*
Y1460000D01*
X1765000Y1400000D02*
X1785000D01*
X1775000Y1390000D02*
Y1410000D01*
X1765000Y750000D02*
X1785000D01*
X1775000Y740000D02*
Y760000D01*
X1765000Y700000D02*
X1785000D01*
X1775000Y690000D02*
Y710000D01*
X1752500Y1625000D02*
X1772500D01*
X1762500Y1615000D02*
Y1635000D01*
X1752500Y1575000D02*
X1772500D01*
X1762500Y1565000D02*
Y1585000D01*
X1752500Y1525000D02*
X1772500D01*
X1762500Y1515000D02*
Y1535000D01*
X1740000Y1500000D02*
X1760000D01*
X1750000Y1490000D02*
Y1510000D01*
X1752500Y1475000D02*
X1772500D01*
X1762500Y1465000D02*
Y1485000D01*
X1740000Y1450000D02*
X1760000D01*
X1750000Y1440000D02*
Y1460000D01*
X1752500Y1425000D02*
X1772500D01*
X1762500Y1415000D02*
Y1435000D01*
X1752500Y1375000D02*
X1772500D01*
X1762500Y1365000D02*
Y1385000D01*
X1715000Y1650000D02*
X1735000D01*
X1725000Y1640000D02*
Y1660000D01*
X1727500Y1625000D02*
X1747500D01*
X1737500Y1615000D02*
Y1635000D01*
X1715000Y1600000D02*
X1735000D01*
X1725000Y1590000D02*
Y1610000D01*
X1727500Y1575000D02*
X1747500D01*
X1737500Y1565000D02*
Y1585000D01*
X1715000Y1550000D02*
X1735000D01*
X1725000Y1540000D02*
Y1560000D01*
X1727500Y1525000D02*
X1747500D01*
X1737500Y1515000D02*
Y1535000D01*
X1715000Y1500000D02*
X1735000D01*
X1725000Y1490000D02*
Y1510000D01*
X1727500Y1475000D02*
X1747500D01*
X1737500Y1465000D02*
Y1485000D01*
X1715000Y1450000D02*
X1735000D01*
X1725000Y1440000D02*
Y1460000D01*
X1727500Y1425000D02*
X1747500D01*
X1737500Y1415000D02*
Y1435000D01*
X1715000Y1400000D02*
X1735000D01*
X1725000Y1390000D02*
Y1410000D01*
X1715000Y1250000D02*
X1735000D01*
X1725000Y1240000D02*
Y1260000D01*
X1715000Y1100000D02*
X1735000D01*
X1725000Y1090000D02*
Y1110000D01*
X1715000Y800000D02*
X1735000D01*
X1725000Y790000D02*
Y810000D01*
X1727500Y775000D02*
X1747500D01*
X1737500Y765000D02*
Y785000D01*
X1715000Y750000D02*
X1735000D01*
X1725000Y740000D02*
Y760000D01*
X1727500Y725000D02*
X1747500D01*
X1737500Y715000D02*
Y735000D01*
X1715000Y700000D02*
X1735000D01*
X1725000Y690000D02*
Y710000D01*
X1690000Y1650000D02*
X1710000D01*
X1700000Y1640000D02*
Y1660000D01*
X1702500Y1625000D02*
X1722500D01*
X1712500Y1615000D02*
Y1635000D01*
X1690000Y1600000D02*
X1710000D01*
X1700000Y1590000D02*
Y1610000D01*
X1702500Y1575000D02*
X1722500D01*
X1712500Y1565000D02*
Y1585000D01*
X1690000Y1550000D02*
X1710000D01*
X1700000Y1540000D02*
Y1560000D01*
X1702500Y1525000D02*
X1722500D01*
X1712500Y1515000D02*
Y1535000D01*
X1690000Y1500000D02*
X1710000D01*
X1700000Y1490000D02*
Y1510000D01*
X1702500Y1475000D02*
X1722500D01*
X1712500Y1465000D02*
Y1485000D01*
X1690000Y1450000D02*
X1710000D01*
X1700000Y1440000D02*
Y1460000D01*
X1702500Y1425000D02*
X1722500D01*
X1712500Y1415000D02*
Y1435000D01*
X1690000Y1400000D02*
X1710000D01*
X1700000Y1390000D02*
Y1410000D01*
X1690000Y1300000D02*
X1710000D01*
X1700000Y1290000D02*
Y1310000D01*
X1702500Y1275000D02*
X1722500D01*
X1712500Y1265000D02*
Y1285000D01*
X1690000Y1250000D02*
X1710000D01*
X1700000Y1240000D02*
Y1260000D01*
X1702500Y1175000D02*
X1722500D01*
X1712500Y1165000D02*
Y1185000D01*
X1690000Y1100000D02*
X1710000D01*
X1700000Y1090000D02*
Y1110000D01*
X1702500Y1075000D02*
X1722500D01*
X1712500Y1065000D02*
Y1085000D01*
X1690000Y1000000D02*
X1710000D01*
X1700000Y990000D02*
Y1010000D01*
X1690000Y800000D02*
X1710000D01*
X1700000Y790000D02*
Y810000D01*
X1702500Y775000D02*
X1722500D01*
X1712500Y765000D02*
Y785000D01*
X1690000Y750000D02*
X1710000D01*
X1700000Y740000D02*
Y760000D01*
X1702500Y725000D02*
X1722500D01*
X1712500Y715000D02*
Y735000D01*
X1690000Y700000D02*
X1710000D01*
X1700000Y690000D02*
Y710000D01*
X1677500Y1625000D02*
X1697500D01*
X1687500Y1615000D02*
Y1635000D01*
X1677500Y1575000D02*
X1697500D01*
X1687500Y1565000D02*
Y1585000D01*
X1677500Y1525000D02*
X1697500D01*
X1687500Y1515000D02*
Y1535000D01*
X1665000Y1500000D02*
X1685000D01*
X1675000Y1490000D02*
Y1510000D01*
X1677500Y1475000D02*
X1697500D01*
X1687500Y1465000D02*
Y1485000D01*
X1665000Y1450000D02*
X1685000D01*
X1675000Y1440000D02*
Y1460000D01*
X1677500Y1425000D02*
X1697500D01*
X1687500Y1415000D02*
Y1435000D01*
X1677500Y1375000D02*
X1697500D01*
X1687500Y1365000D02*
Y1385000D01*
X1665000Y1350000D02*
X1685000D01*
X1675000Y1340000D02*
Y1360000D01*
X1677500Y1275000D02*
X1697500D01*
X1687500Y1265000D02*
Y1285000D01*
X1665000Y1250000D02*
X1685000D01*
X1675000Y1240000D02*
Y1260000D01*
X1677500Y1175000D02*
X1697500D01*
X1687500Y1165000D02*
Y1185000D01*
X1677500Y1025000D02*
X1697500D01*
X1687500Y1015000D02*
Y1035000D01*
X1665000Y900000D02*
X1685000D01*
X1675000Y890000D02*
Y910000D01*
X1677500Y875000D02*
X1697500D01*
X1687500Y865000D02*
Y885000D01*
X1665000Y800000D02*
X1685000D01*
X1675000Y790000D02*
Y810000D01*
X1677500Y775000D02*
X1697500D01*
X1687500Y765000D02*
Y785000D01*
X1665000Y750000D02*
X1685000D01*
X1675000Y740000D02*
Y760000D01*
X1677500Y725000D02*
X1697500D01*
X1687500Y715000D02*
Y735000D01*
X1665000Y700000D02*
X1685000D01*
X1675000Y690000D02*
Y710000D01*
X1652500Y1625000D02*
X1672500D01*
X1662500Y1615000D02*
Y1635000D01*
X1652500Y1575000D02*
X1672500D01*
X1662500Y1565000D02*
Y1585000D01*
X1640000Y1550000D02*
X1660000D01*
X1650000Y1540000D02*
Y1560000D01*
X1652500Y1525000D02*
X1672500D01*
X1662500Y1515000D02*
Y1535000D01*
X1640000Y1500000D02*
X1660000D01*
X1650000Y1490000D02*
Y1510000D01*
X1652500Y1475000D02*
X1672500D01*
X1662500Y1465000D02*
Y1485000D01*
X1640000Y1450000D02*
X1660000D01*
X1650000Y1440000D02*
Y1460000D01*
X1652500Y1425000D02*
X1672500D01*
X1662500Y1415000D02*
Y1435000D01*
X1640000Y1400000D02*
X1660000D01*
X1650000Y1390000D02*
Y1410000D01*
X1640000Y1350000D02*
X1660000D01*
X1650000Y1340000D02*
Y1360000D01*
X1640000Y1000000D02*
X1660000D01*
X1650000Y990000D02*
Y1010000D01*
X1640000Y900000D02*
X1660000D01*
X1650000Y890000D02*
Y910000D01*
X1652500Y875000D02*
X1672500D01*
X1662500Y865000D02*
Y885000D01*
X1652500Y775000D02*
X1672500D01*
X1662500Y765000D02*
Y785000D01*
X1640000Y750000D02*
X1660000D01*
X1650000Y740000D02*
Y760000D01*
X1652500Y725000D02*
X1672500D01*
X1662500Y715000D02*
Y735000D01*
X1640000Y700000D02*
X1660000D01*
X1650000Y690000D02*
Y710000D01*
X1627500Y1575000D02*
X1647500D01*
X1637500Y1565000D02*
Y1585000D01*
X1615000Y1550000D02*
X1635000D01*
X1625000Y1540000D02*
Y1560000D01*
X1627500Y1525000D02*
X1647500D01*
X1637500Y1515000D02*
Y1535000D01*
X1615000Y1500000D02*
X1635000D01*
X1625000Y1490000D02*
Y1510000D01*
X1627500Y1475000D02*
X1647500D01*
X1637500Y1465000D02*
Y1485000D01*
X1615000Y1450000D02*
X1635000D01*
X1625000Y1440000D02*
Y1460000D01*
X1627500Y1425000D02*
X1647500D01*
X1637500Y1415000D02*
Y1435000D01*
X1615000Y1400000D02*
X1635000D01*
X1625000Y1390000D02*
Y1410000D01*
X1627500Y1175000D02*
X1647500D01*
X1637500Y1165000D02*
Y1185000D01*
X1627500Y1075000D02*
X1647500D01*
X1637500Y1065000D02*
Y1085000D01*
X1627500Y1025000D02*
X1647500D01*
X1637500Y1015000D02*
Y1035000D01*
X1615000Y1000000D02*
X1635000D01*
X1625000Y990000D02*
Y1010000D01*
X1615000Y900000D02*
X1635000D01*
X1625000Y890000D02*
Y910000D01*
X1627500Y875000D02*
X1647500D01*
X1637500Y865000D02*
Y885000D01*
X1627500Y775000D02*
X1647500D01*
X1637500Y765000D02*
Y785000D01*
X1615000Y750000D02*
X1635000D01*
X1625000Y740000D02*
Y760000D01*
X1627500Y725000D02*
X1647500D01*
X1637500Y715000D02*
Y735000D01*
X1615000Y700000D02*
X1635000D01*
X1625000Y690000D02*
Y710000D01*
X1602500Y1575000D02*
X1622500D01*
X1612500Y1565000D02*
Y1585000D01*
X1590000Y1550000D02*
X1610000D01*
X1600000Y1540000D02*
Y1560000D01*
X1602500Y1525000D02*
X1622500D01*
X1612500Y1515000D02*
Y1535000D01*
X1590000Y1500000D02*
X1610000D01*
X1600000Y1490000D02*
Y1510000D01*
X1602500Y1475000D02*
X1622500D01*
X1612500Y1465000D02*
Y1485000D01*
X1590000Y1450000D02*
X1610000D01*
X1600000Y1440000D02*
Y1460000D01*
X1602500Y1425000D02*
X1622500D01*
X1612500Y1415000D02*
Y1435000D01*
X1590000Y1400000D02*
X1610000D01*
X1600000Y1390000D02*
Y1410000D01*
X1602500Y1375000D02*
X1622500D01*
X1612500Y1365000D02*
Y1385000D01*
X1590000Y1350000D02*
X1610000D01*
X1600000Y1340000D02*
Y1360000D01*
X1602500Y1175000D02*
X1622500D01*
X1612500Y1165000D02*
Y1185000D01*
X1602500Y1075000D02*
X1622500D01*
X1612500Y1065000D02*
Y1085000D01*
X1602500Y1025000D02*
X1622500D01*
X1612500Y1015000D02*
Y1035000D01*
X1590000Y1000000D02*
X1610000D01*
X1600000Y990000D02*
Y1010000D01*
X1590000Y900000D02*
X1610000D01*
X1600000Y890000D02*
Y910000D01*
X1602500Y875000D02*
X1622500D01*
X1612500Y865000D02*
Y885000D01*
X1602500Y775000D02*
X1622500D01*
X1612500Y765000D02*
Y785000D01*
X1590000Y750000D02*
X1610000D01*
X1600000Y740000D02*
Y760000D01*
X1602500Y725000D02*
X1622500D01*
X1612500Y715000D02*
Y735000D01*
X1590000Y700000D02*
X1610000D01*
X1600000Y690000D02*
Y710000D01*
X1565000Y1550000D02*
X1585000D01*
X1575000Y1540000D02*
Y1560000D01*
X1577500Y1525000D02*
X1597500D01*
X1587500Y1515000D02*
Y1535000D01*
X1565000Y1500000D02*
X1585000D01*
X1575000Y1490000D02*
Y1510000D01*
X1577500Y1475000D02*
X1597500D01*
X1587500Y1465000D02*
Y1485000D01*
X1565000Y1450000D02*
X1585000D01*
X1575000Y1440000D02*
Y1460000D01*
X1577500Y1425000D02*
X1597500D01*
X1587500Y1415000D02*
Y1435000D01*
X1565000Y1400000D02*
X1585000D01*
X1575000Y1390000D02*
Y1410000D01*
X1577500Y1375000D02*
X1597500D01*
X1587500Y1365000D02*
Y1385000D01*
X1565000Y1250000D02*
X1585000D01*
X1575000Y1240000D02*
Y1260000D01*
X1577500Y1175000D02*
X1597500D01*
X1587500Y1165000D02*
Y1185000D01*
X1577500Y1075000D02*
X1597500D01*
X1587500Y1065000D02*
Y1085000D01*
X1577500Y1025000D02*
X1597500D01*
X1587500Y1015000D02*
Y1035000D01*
X1565000Y1000000D02*
X1585000D01*
X1575000Y990000D02*
Y1010000D01*
X1552500Y1525000D02*
X1572500D01*
X1562500Y1515000D02*
Y1535000D01*
X1540000Y1450000D02*
X1560000D01*
X1550000Y1440000D02*
Y1460000D01*
X1552500Y1425000D02*
X1572500D01*
X1562500Y1415000D02*
Y1435000D01*
X1540000Y1400000D02*
X1560000D01*
X1550000Y1390000D02*
Y1410000D01*
X1552500Y1375000D02*
X1572500D01*
X1562500Y1365000D02*
Y1385000D01*
X1540000Y1350000D02*
X1560000D01*
X1550000Y1340000D02*
Y1360000D01*
X1552500Y1175000D02*
X1572500D01*
X1562500Y1165000D02*
Y1185000D01*
X1552500Y1075000D02*
X1572500D01*
X1562500Y1065000D02*
Y1085000D01*
X1552500Y1025000D02*
X1572500D01*
X1562500Y1015000D02*
Y1035000D01*
X1540000Y900000D02*
X1560000D01*
X1550000Y890000D02*
Y910000D01*
X1540000Y750000D02*
X1560000D01*
X1550000Y740000D02*
Y760000D01*
X1527500Y1525000D02*
X1547500D01*
X1537500Y1515000D02*
Y1535000D01*
X1527500Y1425000D02*
X1547500D01*
X1537500Y1415000D02*
Y1435000D01*
X1515000Y1400000D02*
X1535000D01*
X1525000Y1390000D02*
Y1410000D01*
X1527500Y1375000D02*
X1547500D01*
X1537500Y1365000D02*
Y1385000D01*
X1515000Y1350000D02*
X1535000D01*
X1525000Y1340000D02*
Y1360000D01*
X1527500Y1175000D02*
X1547500D01*
X1537500Y1165000D02*
Y1185000D01*
X1527500Y1075000D02*
X1547500D01*
X1537500Y1065000D02*
Y1085000D01*
X1527500Y875000D02*
X1547500D01*
X1537500Y865000D02*
Y885000D01*
X1527500Y775000D02*
X1547500D01*
X1537500Y765000D02*
Y785000D01*
X1527500Y725000D02*
X1547500D01*
X1537500Y715000D02*
Y735000D01*
X1502500Y1525000D02*
X1522500D01*
X1512500Y1515000D02*
Y1535000D01*
X1490000Y1500000D02*
X1510000D01*
X1500000Y1490000D02*
Y1510000D01*
X1490000Y1400000D02*
X1510000D01*
X1500000Y1390000D02*
Y1410000D01*
X1502500Y1375000D02*
X1522500D01*
X1512500Y1365000D02*
Y1385000D01*
X1477500Y1525000D02*
X1497500D01*
X1487500Y1515000D02*
Y1535000D01*
X1465000Y1500000D02*
X1485000D01*
X1475000Y1490000D02*
Y1510000D01*
X1477500Y1475000D02*
X1497500D01*
X1487500Y1465000D02*
Y1485000D01*
X1465000Y1450000D02*
X1485000D01*
X1475000Y1440000D02*
Y1460000D01*
X1477500Y1375000D02*
X1497500D01*
X1487500Y1365000D02*
Y1385000D01*
X1452500Y1525000D02*
X1472500D01*
X1462500Y1515000D02*
Y1535000D01*
X1440000Y1500000D02*
X1460000D01*
X1450000Y1490000D02*
Y1510000D01*
X1452500Y1475000D02*
X1472500D01*
X1462500Y1465000D02*
Y1485000D01*
X1440000Y1450000D02*
X1460000D01*
X1450000Y1440000D02*
Y1460000D01*
X1452500Y1375000D02*
X1472500D01*
X1462500Y1365000D02*
Y1385000D01*
X1440000Y850000D02*
X1460000D01*
X1450000Y840000D02*
Y860000D01*
X1427500Y1525000D02*
X1447500D01*
X1437500Y1515000D02*
Y1535000D01*
X1415000Y1450000D02*
X1435000D01*
X1425000Y1440000D02*
Y1460000D01*
X1427500Y1375000D02*
X1447500D01*
X1437500Y1365000D02*
Y1385000D01*
X1415000Y1250000D02*
X1435000D01*
X1425000Y1240000D02*
Y1260000D01*
X1402500Y1525000D02*
X1422500D01*
X1412500Y1515000D02*
Y1535000D01*
X1390000Y1350000D02*
X1410000D01*
X1400000Y1340000D02*
Y1360000D01*
X1402500Y1175000D02*
X1422500D01*
X1412500Y1165000D02*
Y1185000D01*
X1390000Y850000D02*
X1410000D01*
X1400000Y840000D02*
Y860000D01*
X1390000Y800000D02*
X1410000D01*
X1400000Y790000D02*
Y810000D01*
X1377500Y1525000D02*
X1397500D01*
X1387500Y1515000D02*
Y1535000D01*
X1365000Y1500000D02*
X1385000D01*
X1375000Y1490000D02*
Y1510000D01*
X1377500Y1425000D02*
X1397500D01*
X1387500Y1415000D02*
Y1435000D01*
X1365000Y1400000D02*
X1385000D01*
X1375000Y1390000D02*
Y1410000D01*
X1377500Y1325000D02*
X1397500D01*
X1387500Y1315000D02*
Y1335000D01*
X1365000Y1250000D02*
X1385000D01*
X1375000Y1240000D02*
Y1260000D01*
X1365000Y800000D02*
X1385000D01*
X1375000Y790000D02*
Y810000D01*
X1352500Y1525000D02*
X1372500D01*
X1362500Y1515000D02*
Y1535000D01*
X1340000Y1500000D02*
X1360000D01*
X1350000Y1490000D02*
Y1510000D01*
X1352500Y1425000D02*
X1372500D01*
X1362500Y1415000D02*
Y1435000D01*
X1340000Y1400000D02*
X1360000D01*
X1350000Y1390000D02*
Y1410000D01*
X1340000Y1250000D02*
X1360000D01*
X1350000Y1240000D02*
Y1260000D01*
X1340000Y1200000D02*
X1360000D01*
X1350000Y1190000D02*
Y1210000D01*
X1340000Y850000D02*
X1360000D01*
X1350000Y840000D02*
Y860000D01*
X1340000Y800000D02*
X1360000D01*
X1350000Y790000D02*
Y810000D01*
X1327500Y1525000D02*
X1347500D01*
X1337500Y1515000D02*
Y1535000D01*
X1315000Y1500000D02*
X1335000D01*
X1325000Y1490000D02*
Y1510000D01*
X1327500Y1425000D02*
X1347500D01*
X1337500Y1415000D02*
Y1435000D01*
X1315000Y1400000D02*
X1335000D01*
X1325000Y1390000D02*
Y1410000D01*
X1327500Y1375000D02*
X1347500D01*
X1337500Y1365000D02*
Y1385000D01*
X1315000Y1350000D02*
X1335000D01*
X1325000Y1340000D02*
Y1360000D01*
X1315000Y1250000D02*
X1335000D01*
X1325000Y1240000D02*
Y1260000D01*
X1315000Y1200000D02*
X1335000D01*
X1325000Y1190000D02*
Y1210000D01*
X1327500Y1125000D02*
X1347500D01*
X1337500Y1115000D02*
Y1135000D01*
X1302500Y1525000D02*
X1322500D01*
X1312500Y1515000D02*
Y1535000D01*
X1290000Y1500000D02*
X1310000D01*
X1300000Y1490000D02*
Y1510000D01*
X1302500Y1425000D02*
X1322500D01*
X1312500Y1415000D02*
Y1435000D01*
X1290000Y1400000D02*
X1310000D01*
X1300000Y1390000D02*
Y1410000D01*
X1302500Y1375000D02*
X1322500D01*
X1312500Y1365000D02*
Y1385000D01*
X1290000Y1350000D02*
X1310000D01*
X1300000Y1340000D02*
Y1360000D01*
X1302500Y1325000D02*
X1322500D01*
X1312500Y1315000D02*
Y1335000D01*
X1290000Y1250000D02*
X1310000D01*
X1300000Y1240000D02*
Y1260000D01*
X1290000Y800000D02*
X1310000D01*
X1300000Y790000D02*
Y810000D01*
X1277500Y1525000D02*
X1297500D01*
X1287500Y1515000D02*
Y1535000D01*
X1265000Y1500000D02*
X1285000D01*
X1275000Y1490000D02*
Y1510000D01*
X1277500Y1425000D02*
X1297500D01*
X1287500Y1415000D02*
Y1435000D01*
X1265000Y1400000D02*
X1285000D01*
X1275000Y1390000D02*
Y1410000D01*
X1277500Y1375000D02*
X1297500D01*
X1287500Y1365000D02*
Y1385000D01*
X1265000Y1350000D02*
X1285000D01*
X1275000Y1340000D02*
Y1360000D01*
X1277500Y1325000D02*
X1297500D01*
X1287500Y1315000D02*
Y1335000D01*
X1265000Y800000D02*
X1285000D01*
X1275000Y790000D02*
Y810000D01*
X1252500Y1525000D02*
X1272500D01*
X1262500Y1515000D02*
Y1535000D01*
X1240000Y1500000D02*
X1260000D01*
X1250000Y1490000D02*
Y1510000D01*
X1252500Y1425000D02*
X1272500D01*
X1262500Y1415000D02*
Y1435000D01*
X1240000Y1400000D02*
X1260000D01*
X1250000Y1390000D02*
Y1410000D01*
X1252500Y1375000D02*
X1272500D01*
X1262500Y1365000D02*
Y1385000D01*
X1240000Y1350000D02*
X1260000D01*
X1250000Y1340000D02*
Y1360000D01*
X1252500Y1325000D02*
X1272500D01*
X1262500Y1315000D02*
Y1335000D01*
X1240000Y1300000D02*
X1260000D01*
X1250000Y1290000D02*
Y1310000D01*
X1227500Y1425000D02*
X1247500D01*
X1237500Y1415000D02*
Y1435000D01*
X1215000Y1400000D02*
X1235000D01*
X1225000Y1390000D02*
Y1410000D01*
X1227500Y1375000D02*
X1247500D01*
X1237500Y1365000D02*
Y1385000D01*
X1227500Y1325000D02*
X1247500D01*
X1237500Y1315000D02*
Y1335000D01*
X1215000Y1300000D02*
X1235000D01*
X1225000Y1290000D02*
Y1310000D01*
X1227500Y1275000D02*
X1247500D01*
X1237500Y1265000D02*
Y1285000D01*
X1215000Y800000D02*
X1235000D01*
X1225000Y790000D02*
Y810000D01*
X1227500Y775000D02*
X1247500D01*
X1237500Y765000D02*
Y785000D01*
X1190000Y1550000D02*
X1210000D01*
X1200000Y1540000D02*
Y1560000D01*
X1202500Y1425000D02*
X1222500D01*
X1212500Y1415000D02*
Y1435000D01*
X1190000Y1400000D02*
X1210000D01*
X1200000Y1390000D02*
Y1410000D01*
X1202500Y1375000D02*
X1222500D01*
X1212500Y1365000D02*
Y1385000D01*
X1190000Y1300000D02*
X1210000D01*
X1200000Y1290000D02*
Y1310000D01*
X1202500Y1275000D02*
X1222500D01*
X1212500Y1265000D02*
Y1285000D01*
X1190000Y1250000D02*
X1210000D01*
X1200000Y1240000D02*
Y1260000D01*
X1202500Y1175000D02*
X1222500D01*
X1212500Y1165000D02*
Y1185000D01*
X1202500Y775000D02*
X1222500D01*
X1212500Y765000D02*
Y785000D01*
X1165000Y1550000D02*
X1185000D01*
X1175000Y1540000D02*
Y1560000D01*
X1177500Y1525000D02*
X1197500D01*
X1187500Y1515000D02*
Y1535000D01*
X1165000Y1300000D02*
X1185000D01*
X1175000Y1290000D02*
Y1310000D01*
X1177500Y1275000D02*
X1197500D01*
X1187500Y1265000D02*
Y1285000D01*
X1165000Y1250000D02*
X1185000D01*
X1175000Y1240000D02*
Y1260000D01*
X1165000Y800000D02*
X1185000D01*
X1175000Y790000D02*
Y810000D01*
X1140000Y1550000D02*
X1160000D01*
X1150000Y1540000D02*
Y1560000D01*
X1152500Y1525000D02*
X1172500D01*
X1162500Y1515000D02*
Y1535000D01*
X1140000Y1500000D02*
X1160000D01*
X1150000Y1490000D02*
Y1510000D01*
X1140000Y1300000D02*
X1160000D01*
X1150000Y1290000D02*
Y1310000D01*
X1152500Y1275000D02*
X1172500D01*
X1162500Y1265000D02*
Y1285000D01*
X1140000Y1250000D02*
X1160000D01*
X1150000Y1240000D02*
Y1260000D01*
X1152500Y775000D02*
X1172500D01*
X1162500Y765000D02*
Y785000D01*
X1115000Y1550000D02*
X1135000D01*
X1125000Y1540000D02*
Y1560000D01*
X1127500Y1525000D02*
X1147500D01*
X1137500Y1515000D02*
Y1535000D01*
X1115000Y1500000D02*
X1135000D01*
X1125000Y1490000D02*
Y1510000D01*
X1127500Y1475000D02*
X1147500D01*
X1137500Y1465000D02*
Y1485000D01*
X1115000Y1450000D02*
X1135000D01*
X1125000Y1440000D02*
Y1460000D01*
X1127500Y1425000D02*
X1147500D01*
X1137500Y1415000D02*
Y1435000D01*
X1115000Y1400000D02*
X1135000D01*
X1125000Y1390000D02*
Y1410000D01*
X1127500Y1375000D02*
X1147500D01*
X1137500Y1365000D02*
Y1385000D01*
X1127500Y1275000D02*
X1147500D01*
X1137500Y1265000D02*
Y1285000D01*
X1115000Y950000D02*
X1135000D01*
X1125000Y940000D02*
Y960000D01*
X1127500Y875000D02*
X1147500D01*
X1137500Y865000D02*
Y885000D01*
X1090000Y1550000D02*
X1110000D01*
X1100000Y1540000D02*
Y1560000D01*
X1102500Y1525000D02*
X1122500D01*
X1112500Y1515000D02*
Y1535000D01*
X1090000Y1500000D02*
X1110000D01*
X1100000Y1490000D02*
Y1510000D01*
X1102500Y1475000D02*
X1122500D01*
X1112500Y1465000D02*
Y1485000D01*
X1090000Y1450000D02*
X1110000D01*
X1100000Y1440000D02*
Y1460000D01*
X1102500Y1425000D02*
X1122500D01*
X1112500Y1415000D02*
Y1435000D01*
X1090000Y1400000D02*
X1110000D01*
X1100000Y1390000D02*
Y1410000D01*
X1102500Y1375000D02*
X1122500D01*
X1112500Y1365000D02*
Y1385000D01*
X1090000Y950000D02*
X1110000D01*
X1100000Y940000D02*
Y960000D01*
X1065000Y1550000D02*
X1085000D01*
X1075000Y1540000D02*
Y1560000D01*
X1077500Y1525000D02*
X1097500D01*
X1087500Y1515000D02*
Y1535000D01*
X1065000Y1500000D02*
X1085000D01*
X1075000Y1490000D02*
Y1510000D01*
X1077500Y1475000D02*
X1097500D01*
X1087500Y1465000D02*
Y1485000D01*
X1065000Y1450000D02*
X1085000D01*
X1075000Y1440000D02*
Y1460000D01*
X1077500Y1425000D02*
X1097500D01*
X1087500Y1415000D02*
Y1435000D01*
X1065000Y1400000D02*
X1085000D01*
X1075000Y1390000D02*
Y1410000D01*
X1077500Y1375000D02*
X1097500D01*
X1087500Y1365000D02*
Y1385000D01*
X1040000Y1550000D02*
X1060000D01*
X1050000Y1540000D02*
Y1560000D01*
X1052500Y1525000D02*
X1072500D01*
X1062500Y1515000D02*
Y1535000D01*
X1040000Y1500000D02*
X1060000D01*
X1050000Y1490000D02*
Y1510000D01*
X1052500Y1475000D02*
X1072500D01*
X1062500Y1465000D02*
Y1485000D01*
X1040000Y1450000D02*
X1060000D01*
X1050000Y1440000D02*
Y1460000D01*
X1052500Y1425000D02*
X1072500D01*
X1062500Y1415000D02*
Y1435000D01*
X1040000Y1400000D02*
X1060000D01*
X1050000Y1390000D02*
Y1410000D01*
X1052500Y1375000D02*
X1072500D01*
X1062500Y1365000D02*
Y1385000D01*
X1040000Y1200000D02*
X1060000D01*
X1050000Y1190000D02*
Y1210000D01*
X1015000Y1550000D02*
X1035000D01*
X1025000Y1540000D02*
Y1560000D01*
X1027500Y1525000D02*
X1047500D01*
X1037500Y1515000D02*
Y1535000D01*
X1015000Y1500000D02*
X1035000D01*
X1025000Y1490000D02*
Y1510000D01*
X1027500Y1475000D02*
X1047500D01*
X1037500Y1465000D02*
Y1485000D01*
X1015000Y1450000D02*
X1035000D01*
X1025000Y1440000D02*
Y1460000D01*
X1027500Y1425000D02*
X1047500D01*
X1037500Y1415000D02*
Y1435000D01*
X1015000Y1400000D02*
X1035000D01*
X1025000Y1390000D02*
Y1410000D01*
X1027500Y1375000D02*
X1047500D01*
X1037500Y1365000D02*
Y1385000D01*
X1015000Y1350000D02*
X1035000D01*
X1025000Y1340000D02*
Y1360000D01*
X1015000Y1300000D02*
X1035000D01*
X1025000Y1290000D02*
Y1310000D01*
X1027500Y1175000D02*
X1047500D01*
X1037500Y1165000D02*
Y1185000D01*
X1015000Y1100000D02*
X1035000D01*
X1025000Y1090000D02*
Y1110000D01*
X990000Y1550000D02*
X1010000D01*
X1000000Y1540000D02*
Y1560000D01*
X1002500Y1525000D02*
X1022500D01*
X1012500Y1515000D02*
Y1535000D01*
X990000Y1500000D02*
X1010000D01*
X1000000Y1490000D02*
Y1510000D01*
X1002500Y1475000D02*
X1022500D01*
X1012500Y1465000D02*
Y1485000D01*
X990000Y1450000D02*
X1010000D01*
X1000000Y1440000D02*
Y1460000D01*
X1002500Y1425000D02*
X1022500D01*
X1012500Y1415000D02*
Y1435000D01*
X990000Y1400000D02*
X1010000D01*
X1000000Y1390000D02*
Y1410000D01*
X1002500Y1375000D02*
X1022500D01*
X1012500Y1365000D02*
Y1385000D01*
X990000Y1350000D02*
X1010000D01*
X1000000Y1340000D02*
Y1360000D01*
X990000Y1300000D02*
X1010000D01*
X1000000Y1290000D02*
Y1310000D01*
X1002500Y1275000D02*
X1022500D01*
X1012500Y1265000D02*
Y1285000D01*
X1002500Y1175000D02*
X1022500D01*
X1012500Y1165000D02*
Y1185000D01*
X990000Y1100000D02*
X1010000D01*
X1000000Y1090000D02*
Y1110000D01*
X965000Y1550000D02*
X985000D01*
X975000Y1540000D02*
Y1560000D01*
X977500Y1525000D02*
X997500D01*
X987500Y1515000D02*
Y1535000D01*
X965000Y1500000D02*
X985000D01*
X975000Y1490000D02*
Y1510000D01*
X977500Y1475000D02*
X997500D01*
X987500Y1465000D02*
Y1485000D01*
X965000Y1450000D02*
X985000D01*
X975000Y1440000D02*
Y1460000D01*
X977500Y1425000D02*
X997500D01*
X987500Y1415000D02*
Y1435000D01*
X965000Y1400000D02*
X985000D01*
X975000Y1390000D02*
Y1410000D01*
X977500Y1375000D02*
X997500D01*
X987500Y1365000D02*
Y1385000D01*
X977500Y1175000D02*
X997500D01*
X987500Y1165000D02*
Y1185000D01*
X965000Y1100000D02*
X985000D01*
X975000Y1090000D02*
Y1110000D01*
X940000Y1550000D02*
X960000D01*
X950000Y1540000D02*
Y1560000D01*
X952500Y1525000D02*
X972500D01*
X962500Y1515000D02*
Y1535000D01*
X940000Y1500000D02*
X960000D01*
X950000Y1490000D02*
Y1510000D01*
X952500Y1475000D02*
X972500D01*
X962500Y1465000D02*
Y1485000D01*
X940000Y1450000D02*
X960000D01*
X950000Y1440000D02*
Y1460000D01*
X952500Y1425000D02*
X972500D01*
X962500Y1415000D02*
Y1435000D01*
X940000Y1400000D02*
X960000D01*
X950000Y1390000D02*
Y1410000D01*
X952500Y1375000D02*
X972500D01*
X962500Y1365000D02*
Y1385000D01*
X940000Y1350000D02*
X960000D01*
X950000Y1340000D02*
Y1360000D01*
X940000Y1100000D02*
X960000D01*
X950000Y1090000D02*
Y1110000D01*
X952500Y875000D02*
X972500D01*
X962500Y865000D02*
Y885000D01*
X915000Y1550000D02*
X935000D01*
X925000Y1540000D02*
Y1560000D01*
X927500Y1525000D02*
X947500D01*
X937500Y1515000D02*
Y1535000D01*
X915000Y1500000D02*
X935000D01*
X925000Y1490000D02*
Y1510000D01*
X927500Y1475000D02*
X947500D01*
X937500Y1465000D02*
Y1485000D01*
X915000Y1450000D02*
X935000D01*
X925000Y1440000D02*
Y1460000D01*
X927500Y1425000D02*
X947500D01*
X937500Y1415000D02*
Y1435000D01*
X915000Y1400000D02*
X935000D01*
X925000Y1390000D02*
Y1410000D01*
X927500Y1375000D02*
X947500D01*
X937500Y1365000D02*
Y1385000D01*
X915000Y1350000D02*
X935000D01*
X925000Y1340000D02*
Y1360000D01*
X927500Y1275000D02*
X947500D01*
X937500Y1265000D02*
Y1285000D01*
X927500Y975000D02*
X947500D01*
X937500Y965000D02*
Y985000D01*
X890000Y1550000D02*
X910000D01*
X900000Y1540000D02*
Y1560000D01*
X902500Y1525000D02*
X922500D01*
X912500Y1515000D02*
Y1535000D01*
X890000Y1500000D02*
X910000D01*
X900000Y1490000D02*
Y1510000D01*
X902500Y1475000D02*
X922500D01*
X912500Y1465000D02*
Y1485000D01*
X890000Y1450000D02*
X910000D01*
X900000Y1440000D02*
Y1460000D01*
X902500Y1425000D02*
X922500D01*
X912500Y1415000D02*
Y1435000D01*
X890000Y1400000D02*
X910000D01*
X900000Y1390000D02*
Y1410000D01*
X902500Y1375000D02*
X922500D01*
X912500Y1365000D02*
Y1385000D01*
X890000Y1350000D02*
X910000D01*
X900000Y1340000D02*
Y1360000D01*
X890000Y1050000D02*
X910000D01*
X900000Y1040000D02*
Y1060000D01*
X865000Y1550000D02*
X885000D01*
X875000Y1540000D02*
Y1560000D01*
X877500Y1525000D02*
X897500D01*
X887500Y1515000D02*
Y1535000D01*
X865000Y1500000D02*
X885000D01*
X875000Y1490000D02*
Y1510000D01*
X877500Y1475000D02*
X897500D01*
X887500Y1465000D02*
Y1485000D01*
X865000Y1450000D02*
X885000D01*
X875000Y1440000D02*
Y1460000D01*
X877500Y1425000D02*
X897500D01*
X887500Y1415000D02*
Y1435000D01*
X865000Y1400000D02*
X885000D01*
X875000Y1390000D02*
Y1410000D01*
X877500Y1375000D02*
X897500D01*
X887500Y1365000D02*
Y1385000D01*
X877500Y1275000D02*
X897500D01*
X887500Y1265000D02*
Y1285000D01*
X865000Y950000D02*
X885000D01*
X875000Y940000D02*
Y960000D01*
X877500Y775000D02*
X897500D01*
X887500Y765000D02*
Y785000D01*
X840000Y1150000D02*
X860000D01*
X850000Y1140000D02*
Y1160000D01*
X840000Y1000000D02*
X860000D01*
X850000Y990000D02*
Y1010000D01*
X852500Y975000D02*
X872500D01*
X862500Y965000D02*
Y985000D01*
X840000Y950000D02*
X860000D01*
X850000Y940000D02*
Y960000D01*
X815000Y1650000D02*
X835000D01*
X825000Y1640000D02*
Y1660000D01*
X1453388Y702310D02*
X1460500D01*
X1456944Y698754D02*
Y705866D01*
X998474Y1020318D02*
X1005586D01*
X1002030Y1016762D02*
Y1023874D01*
X988822Y910590D02*
X995934D01*
X992378Y907034D02*
Y914146D01*
X1571244Y718312D02*
X1578356D01*
X1574800Y714756D02*
Y721868D01*
X1101598Y781304D02*
X1108710D01*
X1105154Y777748D02*
Y784860D01*
X1723136Y834898D02*
X1730248D01*
X1726692Y831342D02*
Y838454D01*
X939800Y880872D02*
X946912D01*
X943356Y877316D02*
Y884428D01*
X1719326Y1020064D02*
X1726438D01*
X1722882Y1016508D02*
Y1023620D01*
X1470152Y893318D02*
X1477264D01*
X1473708Y889762D02*
Y896874D01*
X1092023Y770128D02*
X1099135D01*
X1095579Y766572D02*
Y773684D01*
X1643888Y800608D02*
X1651000D01*
X1647444Y797052D02*
Y804164D01*
X1421130Y1113282D02*
X1428242D01*
X1424686Y1109726D02*
Y1116838D01*
X1664716Y1198118D02*
X1671828D01*
X1668272Y1194562D02*
Y1201674D01*
X1385570Y1213358D02*
X1392682D01*
X1389126Y1209802D02*
Y1216914D01*
M02*
