G04*
G04 #@! TF.GenerationSoftware,Altium Limited,Altium Designer,23.8.1 (32)*
G04*
G04 Layer_Color=8388736*
%FSLAX44Y44*%
%MOMM*%
G71*
G04*
G04 #@! TF.SameCoordinates,2C0D8033-C631-4263-A1FA-4DCE3A031024*
G04*
G04*
G04 #@! TF.FilePolarity,Negative*
G04*
G01*
G75*
%ADD13C,1.3032*%
%ADD14R,1.3032X1.3032*%
%ADD15R,1.3032X1.3032*%
%ADD16R,1.5732X1.5732*%
%ADD17C,1.5732*%
%ADD18C,2.3032*%
%ADD19R,2.3032X2.3032*%
%ADD20R,1.6032X1.6032*%
%ADD21C,1.6032*%
%ADD22R,1.6300X1.6300*%
%ADD23C,1.6300*%
%ADD24R,1.8532X1.8532*%
%ADD25C,1.8532*%
%ADD26C,1.7272*%
%ADD27C,3.2032*%
%ADD28R,1.6032X1.6032*%
%ADD29C,1.4032*%
%ADD30R,2.3032X2.3032*%
%ADD31R,1.4532X1.4532*%
%ADD32C,1.4532*%
%ADD33C,2.1532*%
%ADD34C,2.0482*%
%ADD35R,2.0482X2.0482*%
D13*
X1458780Y1213358D02*
D03*
X1239520Y1001576D02*
D03*
X966470Y1073404D02*
D03*
X1039876Y1073966D02*
D03*
X1446276Y987552D02*
D03*
X1446280Y1151382D02*
D03*
Y1071626D02*
D03*
X1258878Y838200D02*
D03*
X1239520Y1185780D02*
D03*
Y1093270D02*
D03*
D14*
X1433780Y1213358D02*
D03*
X1233878Y838200D02*
D03*
D15*
X1239520Y976576D02*
D03*
X966470Y1048404D02*
D03*
X1039876Y1048966D02*
D03*
X1446276Y962552D02*
D03*
X1446280Y1126382D02*
D03*
Y1046626D02*
D03*
X1239520Y1160780D02*
D03*
Y1068270D02*
D03*
D16*
X811784Y705612D02*
D03*
X831596Y705610D02*
D03*
D17*
X811784Y731012D02*
D03*
Y756412D02*
D03*
Y781812D02*
D03*
Y807212D02*
D03*
Y832612D02*
D03*
X831596Y731010D02*
D03*
Y756410D02*
D03*
Y781810D02*
D03*
Y807210D02*
D03*
Y832610D02*
D03*
D18*
X1447254Y747710D02*
D03*
X1739900Y1331576D02*
D03*
X1236980Y747710D02*
D03*
X1342098D02*
D03*
X1423054Y1627124D02*
D03*
X1318044D02*
D03*
X1212888D02*
D03*
X1528064D02*
D03*
X1076706Y1329652D02*
D03*
X1132078Y747710D02*
D03*
X1027138D02*
D03*
X922020D02*
D03*
D19*
X1397254D02*
D03*
X1186980D02*
D03*
X1292098D02*
D03*
X1473054Y1627124D02*
D03*
X1368044D02*
D03*
X1262888D02*
D03*
X1578064D02*
D03*
X1082078Y747710D02*
D03*
X977138D02*
D03*
X872020D02*
D03*
D20*
X1011612Y1597910D02*
D03*
X843626Y1597914D02*
D03*
D21*
X1086612Y1597910D02*
D03*
X918626Y1597914D02*
D03*
X1116838Y913638D02*
D03*
X1067562Y914654D02*
D03*
X1657658Y1302258D02*
D03*
Y1277258D02*
D03*
D22*
X1503680Y1167130D02*
D03*
D23*
Y1141730D02*
D03*
Y1116330D02*
D03*
Y1090930D02*
D03*
Y1065530D02*
D03*
Y1040130D02*
D03*
Y1014730D02*
D03*
Y989330D02*
D03*
Y963930D02*
D03*
Y938530D02*
D03*
Y913130D02*
D03*
Y887730D02*
D03*
Y862330D02*
D03*
Y836930D02*
D03*
Y811530D02*
D03*
Y786130D02*
D03*
Y760730D02*
D03*
Y735330D02*
D03*
Y709930D02*
D03*
X1757680D02*
D03*
Y735330D02*
D03*
Y760730D02*
D03*
Y786130D02*
D03*
Y811530D02*
D03*
Y836930D02*
D03*
Y862330D02*
D03*
Y887730D02*
D03*
Y913130D02*
D03*
Y938530D02*
D03*
Y963930D02*
D03*
Y989330D02*
D03*
Y1014730D02*
D03*
Y1040130D02*
D03*
Y1065530D02*
D03*
Y1090930D02*
D03*
Y1116330D02*
D03*
Y1141730D02*
D03*
Y1167130D02*
D03*
D24*
X1621704Y1258062D02*
D03*
X1066460Y1173226D02*
D03*
X1060110Y995934D02*
D03*
D25*
X1515704Y1258062D02*
D03*
X960460Y1173226D02*
D03*
X954110Y995934D02*
D03*
D26*
X1470914Y1267460D02*
D03*
X1112774Y1196594D02*
D03*
X1138174D02*
D03*
X1157986Y1660650D02*
D03*
X1623314Y1660652D02*
D03*
X1183132Y1122680D02*
D03*
X1190244Y822960D02*
D03*
X1479550Y701548D02*
D03*
X1190240Y859282D02*
D03*
X1394206Y941578D02*
D03*
X1110996Y1140968D02*
D03*
X1136396D02*
D03*
D27*
X1427480Y1333500D02*
D03*
X1214882Y1343406D02*
D03*
Y1470406D02*
D03*
X1414780Y1483106D02*
D03*
X1541780D02*
D03*
X1351280Y1333500D02*
D03*
X1498854Y1333754D02*
D03*
X1575054D02*
D03*
D28*
X1116838Y888238D02*
D03*
X1067562Y889254D02*
D03*
X1657658Y1327258D02*
D03*
D29*
X1026432Y867664D02*
D03*
X916432D02*
D03*
X1026550Y834644D02*
D03*
X916550D02*
D03*
X1128014Y1095130D02*
D03*
Y985130D02*
D03*
X868036Y1223772D02*
D03*
X978036D02*
D03*
X978038Y1265936D02*
D03*
X868038D02*
D03*
X1463548Y915552D02*
D03*
Y805552D02*
D03*
X1422908D02*
D03*
Y915552D02*
D03*
X1068460Y1137666D02*
D03*
X958460D02*
D03*
X1062110Y959104D02*
D03*
X952110D02*
D03*
X1161660Y931418D02*
D03*
X1271660D02*
D03*
X1272930Y896874D02*
D03*
X1162930D02*
D03*
X1094994Y1095130D02*
D03*
Y985130D02*
D03*
X868544Y1303528D02*
D03*
X978544D02*
D03*
X868544Y1347978D02*
D03*
X978544D02*
D03*
D30*
X1739900Y1281576D02*
D03*
X1076706Y1279652D02*
D03*
D31*
X1296162Y1211834D02*
D03*
X1296924Y997458D02*
D03*
D32*
X1296162Y1186434D02*
D03*
Y1161034D02*
D03*
Y1135634D02*
D03*
Y1110234D02*
D03*
Y1084834D02*
D03*
Y1059434D02*
D03*
X1372362D02*
D03*
Y1084834D02*
D03*
Y1110234D02*
D03*
Y1135634D02*
D03*
Y1161034D02*
D03*
Y1186434D02*
D03*
Y1211834D02*
D03*
X1296924Y972058D02*
D03*
Y946658D02*
D03*
Y921258D02*
D03*
Y895858D02*
D03*
Y870458D02*
D03*
Y845058D02*
D03*
X1373124D02*
D03*
Y870458D02*
D03*
Y895858D02*
D03*
Y921258D02*
D03*
Y946658D02*
D03*
Y972058D02*
D03*
Y997458D02*
D03*
D33*
X1673790Y1392990D02*
D03*
X1748790D02*
D03*
X1673790Y1595990D02*
D03*
X1748790D02*
D03*
X1673790Y1545590D02*
D03*
X1748790D02*
D03*
X1673790Y1646390D02*
D03*
X1748790D02*
D03*
D34*
X912114Y1165352D02*
D03*
Y1139952D02*
D03*
X909574Y977392D02*
D03*
Y1002792D02*
D03*
D35*
X912114Y1114552D02*
D03*
X909574Y951992D02*
D03*
M02*
