G04*
G04 #@! TF.GenerationSoftware,Altium Limited,Altium Designer,23.8.1 (32)*
G04*
G04 Layer_Color=255*
%FSLAX44Y44*%
%MOMM*%
G71*
G04*
G04 #@! TF.SameCoordinates,2C0D8033-C631-4263-A1FA-4DCE3A031024*
G04*
G04*
G04 #@! TF.FilePolarity,Positive*
G04*
G01*
G75*
%ADD37C,1.1000*%
%ADD38R,1.1000X1.1000*%
%ADD39R,1.1000X1.1000*%
%ADD40R,1.3700X1.3700*%
%ADD41C,1.3700*%
%ADD42C,2.1000*%
%ADD43R,2.1000X2.1000*%
%ADD44R,1.4000X1.4000*%
%ADD45C,1.4000*%
%ADD46R,1.5300X1.5300*%
%ADD47C,1.5300*%
%ADD48R,1.6500X1.6500*%
%ADD49C,1.6500*%
%ADD50C,1.5240*%
%ADD51C,3.0000*%
%ADD52R,1.4000X1.4000*%
%ADD53C,1.2000*%
%ADD54R,2.1000X2.1000*%
%ADD55R,1.2500X1.2500*%
%ADD56C,1.2500*%
%ADD57C,1.9500*%
%ADD58C,1.8450*%
%ADD59R,1.8450X1.8450*%
D37*
X1458780Y1213358D02*
D03*
X1239520Y1001576D02*
D03*
X966470Y1073404D02*
D03*
X1039876Y1073966D02*
D03*
X1446276Y987552D02*
D03*
X1446280Y1151382D02*
D03*
Y1071626D02*
D03*
X1258878Y838200D02*
D03*
X1239520Y1185780D02*
D03*
Y1093270D02*
D03*
D38*
X1433780Y1213358D02*
D03*
X1233878Y838200D02*
D03*
D39*
X1239520Y976576D02*
D03*
X966470Y1048404D02*
D03*
X1039876Y1048966D02*
D03*
X1446276Y962552D02*
D03*
X1446280Y1126382D02*
D03*
Y1046626D02*
D03*
X1239520Y1160780D02*
D03*
Y1068270D02*
D03*
D40*
X811784Y705612D02*
D03*
X831596Y705610D02*
D03*
D41*
X811784Y731012D02*
D03*
Y756412D02*
D03*
Y781812D02*
D03*
Y807212D02*
D03*
Y832612D02*
D03*
X831596Y731010D02*
D03*
Y756410D02*
D03*
Y781810D02*
D03*
Y807210D02*
D03*
Y832610D02*
D03*
D42*
X1447254Y747710D02*
D03*
X1739900Y1331576D02*
D03*
X1236980Y747710D02*
D03*
X1342098D02*
D03*
X1423054Y1627124D02*
D03*
X1318044D02*
D03*
X1212888D02*
D03*
X1528064D02*
D03*
X1076706Y1329652D02*
D03*
X1132078Y747710D02*
D03*
X1027138D02*
D03*
X922020D02*
D03*
D43*
X1397254D02*
D03*
X1186980D02*
D03*
X1292098D02*
D03*
X1473054Y1627124D02*
D03*
X1368044D02*
D03*
X1262888D02*
D03*
X1578064D02*
D03*
X1082078Y747710D02*
D03*
X977138D02*
D03*
X872020D02*
D03*
D44*
X1011612Y1597910D02*
D03*
X843626Y1597914D02*
D03*
D45*
X1086612Y1597910D02*
D03*
X918626Y1597914D02*
D03*
X1116838Y913638D02*
D03*
X1067562Y914654D02*
D03*
X1657658Y1302258D02*
D03*
Y1277258D02*
D03*
D46*
X1503680Y1167130D02*
D03*
D47*
Y1141730D02*
D03*
Y1116330D02*
D03*
Y1090930D02*
D03*
Y1065530D02*
D03*
Y1040130D02*
D03*
Y1014730D02*
D03*
Y989330D02*
D03*
Y963930D02*
D03*
Y938530D02*
D03*
Y913130D02*
D03*
Y887730D02*
D03*
Y862330D02*
D03*
Y836930D02*
D03*
Y811530D02*
D03*
Y786130D02*
D03*
Y760730D02*
D03*
Y735330D02*
D03*
Y709930D02*
D03*
X1757680D02*
D03*
Y735330D02*
D03*
Y760730D02*
D03*
Y786130D02*
D03*
Y811530D02*
D03*
Y836930D02*
D03*
Y862330D02*
D03*
Y887730D02*
D03*
Y913130D02*
D03*
Y938530D02*
D03*
Y963930D02*
D03*
Y989330D02*
D03*
Y1014730D02*
D03*
Y1040130D02*
D03*
Y1065530D02*
D03*
Y1090930D02*
D03*
Y1116330D02*
D03*
Y1141730D02*
D03*
Y1167130D02*
D03*
D48*
X1621704Y1258062D02*
D03*
X1066460Y1173226D02*
D03*
X1060110Y995934D02*
D03*
D49*
X1515704Y1258062D02*
D03*
X960460Y1173226D02*
D03*
X954110Y995934D02*
D03*
D50*
X1470914Y1267460D02*
D03*
X1112774Y1196594D02*
D03*
X1138174D02*
D03*
X1157986Y1660650D02*
D03*
X1623314Y1660652D02*
D03*
X1183132Y1122680D02*
D03*
X1190244Y822960D02*
D03*
X1479550Y701548D02*
D03*
X1190240Y859282D02*
D03*
X1394206Y941578D02*
D03*
X1110996Y1140968D02*
D03*
X1136396D02*
D03*
D51*
X1427480Y1333500D02*
D03*
X1214882Y1343406D02*
D03*
Y1470406D02*
D03*
X1414780Y1483106D02*
D03*
X1541780D02*
D03*
X1351280Y1333500D02*
D03*
X1498854Y1333754D02*
D03*
X1575054D02*
D03*
D52*
X1116838Y888238D02*
D03*
X1067562Y889254D02*
D03*
X1657658Y1327258D02*
D03*
D53*
X1026432Y867664D02*
D03*
X916432D02*
D03*
X1026550Y834644D02*
D03*
X916550D02*
D03*
X1128014Y1095130D02*
D03*
Y985130D02*
D03*
X868036Y1223772D02*
D03*
X978036D02*
D03*
X978038Y1265936D02*
D03*
X868038D02*
D03*
X1463548Y915552D02*
D03*
Y805552D02*
D03*
X1422908D02*
D03*
Y915552D02*
D03*
X1068460Y1137666D02*
D03*
X958460D02*
D03*
X1062110Y959104D02*
D03*
X952110D02*
D03*
X1161660Y931418D02*
D03*
X1271660D02*
D03*
X1272930Y896874D02*
D03*
X1162930D02*
D03*
X1094994Y1095130D02*
D03*
Y985130D02*
D03*
X868544Y1303528D02*
D03*
X978544D02*
D03*
X868544Y1347978D02*
D03*
X978544D02*
D03*
D54*
X1739900Y1281576D02*
D03*
X1076706Y1279652D02*
D03*
D55*
X1296162Y1211834D02*
D03*
X1296924Y997458D02*
D03*
D56*
X1296162Y1186434D02*
D03*
Y1161034D02*
D03*
Y1135634D02*
D03*
Y1110234D02*
D03*
Y1084834D02*
D03*
Y1059434D02*
D03*
X1372362D02*
D03*
Y1084834D02*
D03*
Y1110234D02*
D03*
Y1135634D02*
D03*
Y1161034D02*
D03*
Y1186434D02*
D03*
Y1211834D02*
D03*
X1296924Y972058D02*
D03*
Y946658D02*
D03*
Y921258D02*
D03*
Y895858D02*
D03*
Y870458D02*
D03*
Y845058D02*
D03*
X1373124D02*
D03*
Y870458D02*
D03*
Y895858D02*
D03*
Y921258D02*
D03*
Y946658D02*
D03*
Y972058D02*
D03*
Y997458D02*
D03*
D57*
X1673790Y1392990D02*
D03*
X1748790D02*
D03*
X1673790Y1595990D02*
D03*
X1748790D02*
D03*
X1673790Y1545590D02*
D03*
X1748790D02*
D03*
X1673790Y1646390D02*
D03*
X1748790D02*
D03*
D58*
X912114Y1165352D02*
D03*
Y1139952D02*
D03*
X909574Y977392D02*
D03*
Y1002792D02*
D03*
D59*
X912114Y1114552D02*
D03*
X909574Y951992D02*
D03*
M02*
