M48
;Layer_Color=9474304
;FILE_FORMAT=4:4
METRIC,LZ
;TYPE=PLATED
T01F00S00C0.5080
T02F00S00C0.7112
T03F00S00C0.7500
T04F00S00C0.7620
T05F00S00C0.8000
T06F00S00C0.8300
T07F00S00C0.9000
T08F00S00C0.9300
T09F00S00C1.0200
T10F00S00C1.0500
T11F00S00C1.1000
T12F00S00C1.2300
T13F00S00C1.3000
T14F00S00C1.4000
T15F00S00C2.0000
%
T01
X0147955Y00701548
X01190244Y0082296
X0119024Y00859282
X01183132Y0112268
X01394206Y00941578
X01470914Y0126746
X01157986Y0166065
X01623314Y01660652
T02
X01456944Y0070231
X015748Y00718312
X01095579Y00770128
X01105154Y00781304
X00992378Y0091059
X00943356Y00880872
X0100203Y01020318
X01424686Y01113282
X01473708Y00893318
X01647444Y00800608
X01726692Y00834898
X01722882Y01020064
X01668272Y01198118
X01389126Y01213358
T03
X0096647Y01048404
Y01073404
X01039876Y01073966
Y01048966
X0123952Y0106827
Y0109327
Y0116078
Y0118578
Y01001576
Y00976576
X01233878Y008382
X01258878
X01446276Y00962552
Y00987552
X0144628Y01046626
Y01071626
Y01126382
Y01151382
X0145878Y01213358
X0143378
T04
X01110996Y01140968
X01136396
X01138174Y01196594
X01112774
T05
X0091655Y00834644
X00916432Y00867664
X01026432
X0102655Y00834644
X0106211Y00959104
X01094994Y0098513
X01128014
X0116166Y00931418
X0116293Y00896874
X01128014Y0109513
X01094994
X0106846Y01137666
X0095846
X0095211Y00959104
X0127166Y00931418
X0127293Y00896874
X01422908Y00915552
X01463548
Y00805552
X01422908
X00978036Y01223772
X00978038Y01265936
X00978544Y01303528
Y01347978
X00868544
Y01303528
X00868038Y01265936
X00868036Y01223772
T06
X01296924Y00845058
Y00870458
Y00895858
Y00921258
Y00946658
Y00972058
Y00997458
X01296162Y01059434
Y01084834
Y01110234
Y01135634
Y01161034
Y01186434
X01372362
Y01161034
Y01135634
Y01110234
Y01084834
Y01059434
X01373124Y00997458
Y00972058
Y00946658
Y00921258
Y00895858
Y00870458
Y00845058
X01372362Y01211834
X01296162
T07
X01067562Y00889254
Y00914654
X01116838Y00913638
Y00888238
T08
X01657658Y01277258
Y01302258
Y01327258
T09
X0175768Y0070993
Y0073533
Y0076073
Y0078613
X0150368
Y0076073
Y0073533
Y0070993
X00831596Y0070561
X00811784Y00705612
Y00731012
X00831596Y0073101
Y0075641
X00811784Y00756412
Y00781812
X00831596Y0078181
Y0080721
X00811784Y00807212
Y00832612
X00831596Y0083261
X0150368Y0083693
Y0086233
Y0088773
Y0091313
Y0093853
Y0096393
Y0098933
Y0101473
Y0104013
Y0106553
Y0109093
Y0111633
Y0114173
Y0116713
Y0081153
X0175768
Y0083693
Y0086233
Y0088773
Y0091313
Y0093853
Y0096393
Y0098933
Y0101473
Y0104013
Y0106553
Y0109093
Y0111633
Y0114173
Y0116713
T10
X00843626Y01597914
X00918626
X01011612Y0159791
X01086612
T11
X0095411Y00995934
X0106011
X0106646Y01173226
X0096046
X01621704Y01258062
X01515704
T12
X00909574Y00951992
Y00977392
Y01002792
X00912114Y01114552
Y01139952
Y01165352
T13
X0167379Y0139299
X0174879
Y0154559
X0167379
X0154178Y01483106
X0141478
X0142748Y013335
X01498854Y01333754
X01575054
X0135128Y013335
X01214882Y01343406
Y01470406
X0167379Y0159599
Y0164639
X0174879
Y0159599
T14
X0123698Y0074771
X01292098
X01342098
X01397254
X01447254
X0118698
X01132078
X01082078
X01027138
X00977138
X0092202
X0087202
X017399Y01281576
Y01331576
X01076706Y01329652
Y01279652
X01212888Y01627124
X01262888
X01318044
X01368044
X01423054
X01473054
X01528064
X01578064
T15
X016Y007
X01625
X0165
X01675
X017
X01725
X017375Y00725
X017125
X016875
X016625
X016375
X016125
X01625Y0075
X0165
X01675
X017
X01725
X017375Y00775
X017125
X016875
X016625
X016375
X016125
X016Y0075
X01775
Y007
X015375Y00725
X0155Y0075
X015375Y00775
X012375
X012125
X011625
X008875
X009625Y00875
X009375Y00975
X008625
X00875Y0095
X0085
Y01
X009Y0105
X0095Y011
X00975
X01
X01025
X010375Y01175
X010125
X009875
X0085Y0115
X011Y0095
X01125
X011375Y00875
X01175Y008
X01225
X01275
X013
X0135
X01375
X014
Y0085
X0145
X0135
X015375Y00875
X0155Y009
X01575Y01
X015625Y01025
Y01075
X015375
Y01175
X015625
X014125
X013375Y01125
X012125Y01175
X015875
X016125
X016375
X016875
X017125
X01725Y011
X017
X017125Y01075
X016875Y01025
X017Y01
X0165
X01625
X016
X016125Y01025
X016375
Y01075
X016125
X015875
Y01025
X016Y009
X01625
X0165
X01675
X016875Y00875
X016625
X016375
X016125
X01675Y008
X017
X01725
Y0125
X017
X01675
X016875Y01275
X017125
X017Y013
X01675Y0135
X0165
Y014
X01625
X016
X016125Y01425
X016375
X016625
X016875
X017125
X017375
X017625
X01775Y0145
X0175
X01725
X017
X01675
X0165
X01625
X016
X016125Y01475
X016375
X016625
X016875
X017125
X017375
X017625
X01775Y015
X0175
X01725
X017
X01675
X0165
X01625
X016
X016125Y01525
X016375
X016625
X016875
X017125
X017375
X017625
X01775Y0155
X017625Y01575
X017375
X017125
X016875
X016625
X016375
X016125
X01625Y0155
X0165
X017
X01725
X016
X015875Y01525
Y01475
Y01425
Y01375
X016125
X016Y0135
X016875Y01375
X017Y014
X01725
X01775
X017625Y01375
X015625
X015375
X015125
X014875
X014625
X014375
X014Y0135
X013875Y01325
X013125
X012875
X012625
X012375
X0125Y0135
X01275
X013
X01325
X013375Y01375
X013125
X012875
X012625
X012375
X012125
X01225Y014
X0125
X01275
X013
X01325
X0135
X01375
X013875Y01425
X013625
X013375
X013125
X012875
X012625
X012375
X012125
X012Y014
Y013
X01225
X0125
X012375Y01275
X012125
X012Y0125
X013
X01325
X0135
X01375
X01425
X0135Y012
X01325
X01575Y0125
X0155Y0135
X01525
Y014
X0155
X01575
X015625Y01425
X015375
X0155Y0145
X01575
Y015
X015625Y01525
X015375
X015125
X014875
X014625
X014375
X014125
X013875
X013625
X013375
X013125
X012875
X012625
X01275Y015
X013
X01325
X0135
X01375
X0145
X01475
X015
X014875Y01475
X014625
X01475Y0145
X0145
X01425
X015Y014
X01575Y0155
X0125Y015
X012Y0155
X01175
X0115
X01125
X011
X01075
X0105
X01025
X01
X00975
X0095
X00925
X009
X00875
X008875Y01525
X009125
X009375
X009625
X009875
X010125
X010375
X010625
X010875
X011125
X011375
X011625
X011875
X0115Y015
X01125
X011
X01075
X0105
X01025
X01
X00975
X0095
X00925
X009
X00875
X008875Y01475
X009125
X009375
X009625
X009875
X010125
X010375
X010625
X010875
X011125
X011375
X01125Y0145
X011
X01075
X0105
X01025
X01
X00975
X0095
X00925
X009
X00875
X008875Y01425
X009125
X009375
X009625
X009875
X010125
X010375
X010625
X010875
X011125
X011375
X01125Y014
X011
X01075
X0105
X01025
X01
X00975
X0095
X00925
X009
X00875
X008875Y01375
X009125
X009375
X009625
X009875
X010125
X010375
X010625
X010875
X011125
X011375
X0115Y013
X01175
X011875Y01275
X011625
X011375
X0115Y0125
X01175
X0105Y012
X010125Y01275
X01025Y013
X01
Y0135
X01025
X0095
X00925
X009
X008875Y01275
X009375
X00825Y0165
X016625Y01625
X016875
X017125
X017375
X017625
X01775Y0165
Y016
X01725
X017
Y0165
X01725
M30
