G04*
G04 #@! TF.GenerationSoftware,Altium Limited,Altium Designer,23.8.1 (32)*
G04*
G04 Layer_Color=65535*
%FSLAX44Y44*%
%MOMM*%
G71*
G04*
G04 #@! TF.SameCoordinates,2C0D8033-C631-4263-A1FA-4DCE3A031024*
G04*
G04*
G04 #@! TF.FilePolarity,Positive*
G04*
G01*
G75*
%ADD10C,0.2000*%
%ADD11C,0.1270*%
%ADD12C,0.2540*%
D10*
X1408280Y1213358D02*
G03*
X1408280Y1213358I-1000J0D01*
G01*
X1240520Y950076D02*
G03*
X1240520Y950076I-1000J0D01*
G01*
X812784Y686412D02*
G03*
X812784Y686412I-1000J0D01*
G01*
X832596Y686410D02*
G03*
X832596Y686410I-1000J0D01*
G01*
X1367254Y747710D02*
G03*
X1367254Y747710I-1000J0D01*
G01*
X962612Y1597910D02*
G03*
X962612Y1597910I-1000J0D01*
G01*
X794626Y1597914D02*
G03*
X794626Y1597914I-1000J0D01*
G01*
X1485980Y1168330D02*
G03*
X1485980Y1168330I-1000J0D01*
G01*
X967470Y1021904D02*
G03*
X967470Y1021904I-1000J0D01*
G01*
X1040876Y1022466D02*
G03*
X1040876Y1022466I-1000J0D01*
G01*
X1127839Y885447D02*
G03*
X1127394Y916736I-11001J15491D01*
G01*
X1106282D02*
G03*
X1105837Y885447I10556J-15798D01*
G01*
X1078563Y886463D02*
G03*
X1078118Y917752I-11001J15491D01*
G01*
X1057006D02*
G03*
X1056561Y886463I10556J-15798D01*
G01*
X1658658Y1344258D02*
G03*
X1658658Y1344258I-1000J0D01*
G01*
X1447276Y936052D02*
G03*
X1447276Y936052I-1000J0D01*
G01*
X1447280Y1099882D02*
G03*
X1447280Y1099882I-1000J0D01*
G01*
Y1020126D02*
G03*
X1447280Y1020126I-1000J0D01*
G01*
X1208378Y838200D02*
G03*
X1208378Y838200I-1000J0D01*
G01*
X1740900Y1250576D02*
G03*
X1740900Y1250576I-1000J0D01*
G01*
X1281262Y1212634D02*
G03*
X1281262Y1212634I-1000J0D01*
G01*
X1282024Y998258D02*
G03*
X1282024Y998258I-1000J0D01*
G01*
X1240520Y1134280D02*
G03*
X1240520Y1134280I-1000J0D01*
G01*
X1156980Y747710D02*
G03*
X1156980Y747710I-1000J0D01*
G01*
X1262098D02*
G03*
X1262098Y747710I-1000J0D01*
G01*
X1505054Y1627124D02*
G03*
X1505054Y1627124I-1000J0D01*
G01*
X1400044D02*
G03*
X1400044Y1627124I-1000J0D01*
G01*
X1294888D02*
G03*
X1294888Y1627124I-1000J0D01*
G01*
X1610064D02*
G03*
X1610064Y1627124I-1000J0D01*
G01*
X1077706Y1248652D02*
G03*
X1077706Y1248652I-1000J0D01*
G01*
X913114Y1080377D02*
G03*
X913114Y1080377I-1000J0D01*
G01*
X910574Y917817D02*
G03*
X910574Y917817I-1000J0D01*
G01*
X1052078Y747710D02*
G03*
X1052078Y747710I-1000J0D01*
G01*
X947138D02*
G03*
X947138Y747710I-1000J0D01*
G01*
X842020D02*
G03*
X842020Y747710I-1000J0D01*
G01*
X1240520Y1041770D02*
G03*
X1240520Y1041770I-1000J0D01*
G01*
X1114338Y874738D02*
X1119338D01*
X1116838Y872238D02*
Y877238D01*
X1065062Y875754D02*
X1070062D01*
X1067562Y873254D02*
Y878254D01*
D11*
X1477780Y1213358D02*
G03*
X1477780Y1213358I-31500J0D01*
G01*
X1271020Y989076D02*
G03*
X1271020Y989076I-31500J0D01*
G01*
X1129112Y1597910D02*
G03*
X1129112Y1597910I-80000J0D01*
G01*
X961126Y1597914D02*
G03*
X961126Y1597914I-80000J0D01*
G01*
X997970Y1060904D02*
G03*
X997970Y1060904I-31500J0D01*
G01*
X1071376Y1061466D02*
G03*
X1071376Y1061466I-31500J0D01*
G01*
X1668011Y1280469D02*
G03*
X1668011Y1324047I-8803J21789D01*
G01*
X1477776Y975052D02*
G03*
X1477776Y975052I-31500J0D01*
G01*
X1477780Y1138882D02*
G03*
X1477780Y1138882I-31500J0D01*
G01*
Y1059126D02*
G03*
X1477780Y1059126I-31500J0D01*
G01*
X1277878Y838200D02*
G03*
X1277878Y838200I-31500J0D01*
G01*
X1271020Y1173280D02*
G03*
X1271020Y1173280I-31500J0D01*
G01*
Y1080770D02*
G03*
X1271020Y1080770I-31500J0D01*
G01*
X1472254Y712710D02*
Y787710D01*
X1372254Y712710D02*
X1472254D01*
X1372254D02*
Y787710D01*
X1472254D01*
X1491180Y697630D02*
Y1179630D01*
X1770180Y697630D02*
Y1179630D01*
X1720680D02*
X1770180D01*
X1491180D02*
X1540680D01*
Y1241630D01*
X1720680D01*
Y1179630D02*
Y1241630D01*
X1491180Y697630D02*
X1589980D01*
Y688630D02*
Y697630D01*
Y688630D02*
X1671280D01*
Y697630D01*
X1770180D01*
X1529704Y1258062D02*
X1542704D01*
X1594704D02*
X1607704D01*
X1542704Y1244562D02*
Y1258062D01*
Y1271562D01*
X1594704Y1258062D02*
Y1271562D01*
Y1244562D02*
Y1258062D01*
X1586454Y1244562D02*
Y1271562D01*
X1542704D02*
X1586454D01*
X1594704D01*
X1586454Y1244562D02*
X1594704D01*
X1542704D02*
X1586454D01*
X1005432Y854664D02*
Y867664D01*
Y880664D01*
X937432D02*
X1005432D01*
X937432Y867664D02*
Y880664D01*
Y854664D02*
Y867664D01*
Y854664D02*
X1005432D01*
Y867664D02*
X1017232D01*
X925632D02*
X937432D01*
X1005550Y821644D02*
Y834644D01*
Y847644D01*
X937550D02*
X1005550D01*
X937550Y834644D02*
Y847644D01*
Y821644D02*
Y834644D01*
Y821644D02*
X1005550D01*
Y834644D02*
X1017350D01*
X925750D02*
X937550D01*
X1645708Y1283023D02*
Y1321493D01*
Y1283023D02*
Y1321493D01*
X1128014Y1074130D02*
X1141014D01*
X1115014D02*
X1128014D01*
X1115014Y1006130D02*
Y1074130D01*
Y1006130D02*
X1128014D01*
X1141014D01*
Y1074130D01*
X1128014D02*
Y1085930D01*
Y994330D02*
Y1006130D01*
X889036Y1223772D02*
Y1236772D01*
Y1210772D02*
Y1223772D01*
Y1210772D02*
X957036D01*
Y1223772D01*
Y1236772D01*
X889036D02*
X957036D01*
X877236Y1223772D02*
X889036D01*
X957036D02*
X968836D01*
X957038Y1252936D02*
Y1265936D01*
Y1278936D01*
X889038D02*
X957038D01*
X889038Y1265936D02*
Y1278936D01*
Y1252936D02*
Y1265936D01*
Y1252936D02*
X957038D01*
Y1265936D02*
X968838D01*
X877238D02*
X889038D01*
X1463548Y894552D02*
X1476548D01*
X1450548D02*
X1463548D01*
X1450548Y826552D02*
Y894552D01*
Y826552D02*
X1463548D01*
X1476548D01*
Y894552D01*
X1463548D02*
Y906352D01*
Y814752D02*
Y826552D01*
X1409908D02*
X1422908D01*
X1435908D01*
Y894552D01*
X1422908D02*
X1435908D01*
X1409908D02*
X1422908D01*
X1409908Y826552D02*
Y894552D01*
X1422908Y814752D02*
Y826552D01*
Y894552D02*
Y906352D01*
X1699900Y1256576D02*
Y1356576D01*
Y1256576D02*
X1774900D01*
Y1356576D01*
X1699900D02*
X1774900D01*
X1298662Y1221204D02*
Y1236634D01*
X1369862D01*
Y1221204D02*
Y1236634D01*
Y1034634D02*
Y1050064D01*
X1298662Y1034634D02*
X1369862D01*
X1298662D02*
Y1050064D01*
X1299424Y1006828D02*
Y1022258D01*
X1370624D01*
Y1006828D02*
Y1022258D01*
Y820258D02*
Y835688D01*
X1299424Y820258D02*
X1370624D01*
X1299424D02*
Y835688D01*
X1161980Y787710D02*
X1261980D01*
X1161980Y712710D02*
Y787710D01*
Y712710D02*
X1261980D01*
Y787710D01*
X1267098D02*
X1367098D01*
X1267098Y712710D02*
Y787710D01*
Y712710D02*
X1367098D01*
Y787710D01*
X1398054Y1587124D02*
X1498054D01*
Y1662124D01*
X1398054D02*
X1498054D01*
X1398054Y1587124D02*
Y1662124D01*
X1293044Y1587124D02*
X1393044D01*
Y1662124D01*
X1293044D02*
X1393044D01*
X1293044Y1587124D02*
Y1662124D01*
X1187888Y1587124D02*
X1287888D01*
Y1662124D01*
X1187888D02*
X1287888D01*
X1187888Y1587124D02*
Y1662124D01*
X1647790Y1369540D02*
Y1659490D01*
X1774790D01*
Y1369490D02*
Y1659490D01*
X1647790Y1369490D02*
X1774790D01*
X987460Y1159726D02*
X1031210D01*
X1039460D01*
X1031210Y1186726D02*
X1039460D01*
X987460D02*
X1031210D01*
Y1159726D02*
Y1186726D01*
X1039460Y1159726D02*
Y1173226D01*
Y1186726D01*
X987460Y1173226D02*
Y1186726D01*
Y1159726D02*
Y1173226D01*
X1039460D02*
X1052460D01*
X974460D02*
X987460D01*
X1047460Y1124666D02*
Y1137666D01*
Y1150666D01*
X979460D02*
X1047460D01*
X979460Y1137666D02*
Y1150666D01*
Y1124666D02*
Y1137666D01*
Y1124666D02*
X1047460D01*
Y1137666D02*
X1059260D01*
X967660D02*
X979460D01*
X1503064Y1587124D02*
X1603064D01*
Y1662124D01*
X1503064D02*
X1603064D01*
X1503064Y1587124D02*
Y1662124D01*
X1036706Y1254652D02*
Y1354652D01*
Y1254652D02*
X1111706D01*
Y1354652D01*
X1036706D02*
X1111706D01*
X981110Y982434D02*
X1024860D01*
X1033110D01*
X1024860Y1009434D02*
X1033110D01*
X981110D02*
X1024860D01*
Y982434D02*
Y1009434D01*
X1033110Y982434D02*
Y995934D01*
Y1009434D01*
X981110Y995934D02*
Y1009434D01*
Y982434D02*
Y995934D01*
X1033110D02*
X1046110D01*
X968110D02*
X981110D01*
X1041110Y946104D02*
Y959104D01*
Y972104D01*
X973110D02*
X1041110D01*
X973110Y959104D02*
Y972104D01*
Y946104D02*
Y959104D01*
Y946104D02*
X1041110D01*
Y959104D02*
X1052910D01*
X961310D02*
X973110D01*
X881789Y1087877D02*
X926239D01*
Y1192027D01*
X881789D02*
X926239D01*
X881789Y1087877D02*
Y1192027D01*
X879249Y925317D02*
X923699D01*
X879249D02*
Y1029467D01*
X923699D01*
Y925317D02*
Y1029467D01*
X1182660Y931418D02*
Y944418D01*
Y918418D02*
Y931418D01*
Y918418D02*
X1250660D01*
Y931418D01*
Y944418D01*
X1182660D02*
X1250660D01*
X1170860Y931418D02*
X1182660D01*
X1250660D02*
X1262460D01*
X1251930Y883874D02*
Y896874D01*
Y909874D01*
X1183930D02*
X1251930D01*
X1183930Y896874D02*
Y909874D01*
Y883874D02*
Y896874D01*
Y883874D02*
X1251930D01*
Y896874D02*
X1263730D01*
X1172130D02*
X1183930D01*
X1094994Y1074130D02*
X1107994D01*
X1081994D02*
X1094994D01*
X1081994Y1006130D02*
Y1074130D01*
Y1006130D02*
X1094994D01*
X1107994D01*
Y1074130D01*
X1094994D02*
Y1085930D01*
Y994330D02*
Y1006130D01*
X1057078Y787710D02*
X1157078D01*
X1057078Y712710D02*
Y787710D01*
Y712710D02*
X1157078D01*
Y787710D01*
X952138D02*
X1052138D01*
X952138Y712710D02*
Y787710D01*
Y712710D02*
X1052138D01*
Y787710D01*
X847020D02*
X947020D01*
X847020Y712710D02*
Y787710D01*
Y712710D02*
X947020D01*
Y787710D01*
X889544Y1303528D02*
Y1316528D01*
Y1290528D02*
Y1303528D01*
Y1290528D02*
X957544D01*
Y1303528D01*
Y1316528D01*
X889544D02*
X957544D01*
X877744Y1303528D02*
X889544D01*
X957544D02*
X969344D01*
X889544Y1347978D02*
Y1360978D01*
Y1334978D02*
Y1347978D01*
Y1334978D02*
X957544D01*
Y1347978D01*
Y1360978D01*
X889544D02*
X957544D01*
X877744Y1347978D02*
X889544D01*
X957544D02*
X969344D01*
D12*
X1628140Y1404366D02*
Y1554366D01*
X1328140Y1404366D02*
Y1554366D01*
X1628140D01*
X1328140Y1404366D02*
X1628140D01*
X1142352Y1558036D02*
X1292352D01*
X1142352Y1258036D02*
X1292352D01*
X1142352D02*
Y1558036D01*
X1292352Y1258036D02*
Y1558036D01*
X812520Y1387170D02*
X1112520D01*
X812520Y1487170D02*
X1112520D01*
Y1387170D02*
Y1487170D01*
X812520Y1387170D02*
Y1487170D01*
X1775154Y1306830D02*
X1794764D01*
X1635273Y898458D02*
Y891794D01*
X1645270D01*
Y898458D01*
X1640271Y891794D02*
Y895126D01*
X1636939Y908455D02*
X1635273Y906789D01*
Y903457D01*
X1636939Y901791D01*
X1638605D01*
X1640271Y903457D01*
Y906789D01*
X1641938Y908455D01*
X1643604D01*
X1645270Y906789D01*
Y903457D01*
X1643604Y901791D01*
X1645270Y911788D02*
X1635273D01*
Y916786D01*
X1636939Y918452D01*
X1640271D01*
X1641938Y916786D01*
Y911788D01*
X1636939Y921784D02*
X1635273Y923450D01*
Y926783D01*
X1636939Y928449D01*
X1638605D01*
X1640271Y926783D01*
Y925117D01*
Y926783D01*
X1641938Y928449D01*
X1643604D01*
X1645270Y926783D01*
Y923450D01*
X1643604Y921784D01*
X1645270Y938446D02*
Y931781D01*
X1638605Y938446D01*
X1636939D01*
X1635273Y936779D01*
Y933447D01*
X1636939Y931781D01*
X1646936Y941778D02*
Y948442D01*
X1635273Y951775D02*
X1645270D01*
X1641938Y955107D01*
X1645270Y958439D01*
X1635273D01*
X1645270Y961771D02*
X1635273D01*
Y966770D01*
X1636939Y968436D01*
X1640271D01*
X1641938Y966770D01*
Y961771D01*
Y965104D02*
X1645270Y968436D01*
X1635273Y976767D02*
Y973434D01*
X1636939Y971768D01*
X1643604D01*
X1645270Y973434D01*
Y976767D01*
X1643604Y978433D01*
X1636939D01*
X1635273Y976767D01*
Y986763D02*
Y983431D01*
X1636939Y981765D01*
X1643604D01*
X1645270Y983431D01*
Y986763D01*
X1643604Y988429D01*
X1636939D01*
X1635273Y986763D01*
X1645270Y991762D02*
X1635273D01*
X1638605Y995094D01*
X1635273Y998426D01*
X1645270D01*
X1640271Y1001759D02*
Y1008423D01*
X1636939Y1011755D02*
X1635273Y1013421D01*
Y1016754D01*
X1636939Y1018420D01*
X1638605D01*
X1640271Y1016754D01*
Y1015088D01*
Y1016754D01*
X1641938Y1018420D01*
X1643604D01*
X1645270Y1016754D01*
Y1013421D01*
X1643604Y1011755D01*
X1645270Y1028417D02*
Y1021752D01*
X1638605Y1028417D01*
X1636939D01*
X1635273Y1026750D01*
Y1023418D01*
X1636939Y1021752D01*
X1635273Y1031749D02*
X1643604D01*
X1645270Y1033415D01*
Y1036747D01*
X1643604Y1038413D01*
X1635273D01*
X1188832Y985012D02*
Y988344D01*
Y986678D01*
X1178835D01*
X1180501Y985012D01*
X1188832Y1000007D02*
Y993343D01*
X1182167Y1000007D01*
X1180501D01*
X1178835Y998341D01*
Y995009D01*
X1180501Y993343D01*
X1178835Y1003339D02*
X1185500D01*
X1188832Y1006672D01*
X1185500Y1010004D01*
X1178835D01*
X1190498Y1013336D02*
Y1020001D01*
X1180501Y1029997D02*
X1178835Y1028331D01*
Y1024999D01*
X1180501Y1023333D01*
X1182167D01*
X1183833Y1024999D01*
Y1028331D01*
X1185500Y1029997D01*
X1187166D01*
X1188832Y1028331D01*
Y1024999D01*
X1187166Y1023333D01*
X1188832Y1038328D02*
Y1034996D01*
X1187166Y1033330D01*
X1183833D01*
X1182167Y1034996D01*
Y1038328D01*
X1183833Y1039994D01*
X1185500D01*
Y1033330D01*
X1188832Y1043326D02*
X1182167D01*
Y1048325D01*
X1183833Y1049991D01*
X1188832D01*
Y1053323D02*
Y1058322D01*
X1187166Y1059988D01*
X1185500Y1058322D01*
Y1054989D01*
X1183833Y1053323D01*
X1182167Y1054989D01*
Y1059988D01*
X1188832Y1068318D02*
Y1064986D01*
X1187166Y1063320D01*
X1183833D01*
X1182167Y1064986D01*
Y1068318D01*
X1183833Y1069985D01*
X1185500D01*
Y1063320D01*
X1190498Y1073317D02*
Y1079981D01*
X1178835Y1089978D02*
Y1083314D01*
X1188832D01*
Y1089978D01*
X1183833Y1083314D02*
Y1086646D01*
X1180501Y1099975D02*
X1178835Y1098309D01*
Y1094977D01*
X1180501Y1093310D01*
X1182167D01*
X1183833Y1094977D01*
Y1098309D01*
X1185500Y1099975D01*
X1187166D01*
X1188832Y1098309D01*
Y1094977D01*
X1187166Y1093310D01*
X1188832Y1103307D02*
X1178835D01*
Y1108306D01*
X1180501Y1109972D01*
X1183833D01*
X1185500Y1108306D01*
Y1103307D01*
X1337625Y1262014D02*
X1330960D01*
X1337625Y1268679D01*
Y1270345D01*
X1335958Y1272011D01*
X1332626D01*
X1330960Y1270345D01*
X1345955Y1262014D02*
Y1272011D01*
X1340957Y1267012D01*
X1347621D01*
X1350954Y1272011D02*
Y1265346D01*
X1354286Y1262014D01*
X1357618Y1265346D01*
Y1272011D01*
X1360950Y1260348D02*
X1367615D01*
X1377612Y1270345D02*
X1375945Y1272011D01*
X1372613D01*
X1370947Y1270345D01*
Y1268679D01*
X1372613Y1267012D01*
X1375945D01*
X1377612Y1265346D01*
Y1263680D01*
X1375945Y1262014D01*
X1372613D01*
X1370947Y1263680D01*
X1385942Y1262014D02*
X1382610D01*
X1380944Y1263680D01*
Y1267012D01*
X1382610Y1268679D01*
X1385942D01*
X1387608Y1267012D01*
Y1265346D01*
X1380944D01*
X1390941Y1262014D02*
Y1268679D01*
X1395939D01*
X1397605Y1267012D01*
Y1262014D01*
X1400938D02*
X1405936D01*
X1407602Y1263680D01*
X1405936Y1265346D01*
X1402604D01*
X1400938Y1267012D01*
X1402604Y1268679D01*
X1407602D01*
X1415933Y1262014D02*
X1412600D01*
X1410934Y1263680D01*
Y1267012D01*
X1412600Y1268679D01*
X1415933D01*
X1417599Y1267012D01*
Y1265346D01*
X1410934D01*
X1420931Y1260348D02*
X1427596D01*
X1437592Y1272011D02*
X1430928D01*
Y1262014D01*
X1437592D01*
X1430928Y1267012D02*
X1434260D01*
X1447589Y1270345D02*
X1445923Y1272011D01*
X1442591D01*
X1440925Y1270345D01*
Y1268679D01*
X1442591Y1267012D01*
X1445923D01*
X1447589Y1265346D01*
Y1263680D01*
X1445923Y1262014D01*
X1442591D01*
X1440925Y1263680D01*
X1450921Y1262014D02*
Y1272011D01*
X1455920D01*
X1457586Y1270345D01*
Y1267012D01*
X1455920Y1265346D01*
X1450921D01*
X1136964Y818022D02*
X1130300D01*
X1136964Y824687D01*
Y826353D01*
X1135298Y828019D01*
X1131966D01*
X1130300Y826353D01*
X1145295Y818022D02*
Y828019D01*
X1140297Y823020D01*
X1146961D01*
X1150294Y816356D02*
X1156958D01*
X1166955Y826353D02*
X1165289Y828019D01*
X1161956D01*
X1160290Y826353D01*
Y819688D01*
X1161956Y818022D01*
X1165289D01*
X1166955Y819688D01*
X1176952Y826353D02*
X1175285Y828019D01*
X1171953D01*
X1170287Y826353D01*
Y824687D01*
X1171953Y823020D01*
X1175285D01*
X1176952Y821354D01*
Y819688D01*
X1175285Y818022D01*
X1171953D01*
X1170287Y819688D01*
X1098102Y851804D02*
X1091438D01*
X1098102Y858469D01*
Y860135D01*
X1096436Y861801D01*
X1093104D01*
X1091438Y860135D01*
X1106433Y851804D02*
Y861801D01*
X1101435Y856803D01*
X1108099D01*
X1111432Y850138D02*
X1118096D01*
X1128093Y860135D02*
X1126427Y861801D01*
X1123094D01*
X1121428Y860135D01*
Y853470D01*
X1123094Y851804D01*
X1126427D01*
X1128093Y853470D01*
X1138090Y860135D02*
X1136423Y861801D01*
X1133091D01*
X1131425Y860135D01*
Y858469D01*
X1133091Y856803D01*
X1136423D01*
X1138090Y855136D01*
Y853470D01*
X1136423Y851804D01*
X1133091D01*
X1131425Y853470D01*
X1141422Y850138D02*
X1148086D01*
X1158083Y861801D02*
X1151419D01*
Y851804D01*
X1158083D01*
X1151419Y856803D02*
X1154751D01*
X1168080Y860135D02*
X1166414Y861801D01*
X1163082D01*
X1161415Y860135D01*
Y858469D01*
X1163082Y856803D01*
X1166414D01*
X1168080Y855136D01*
Y853470D01*
X1166414Y851804D01*
X1163082D01*
X1161415Y853470D01*
X1171412Y851804D02*
Y861801D01*
X1176411D01*
X1178077Y860135D01*
Y856803D01*
X1176411Y855136D01*
X1171412D01*
X1393048Y844550D02*
Y847882D01*
Y846216D01*
X1383051D01*
X1384717Y844550D01*
X1393048Y859545D02*
Y852881D01*
X1386383Y859545D01*
X1384717D01*
X1383051Y857879D01*
Y854547D01*
X1384717Y852881D01*
X1394714Y862877D02*
Y869542D01*
X1384717Y879539D02*
X1383051Y877873D01*
Y874540D01*
X1384717Y872874D01*
X1391382D01*
X1393048Y874540D01*
Y877873D01*
X1391382Y879539D01*
X1384717Y889536D02*
X1383051Y887869D01*
Y884537D01*
X1384717Y882871D01*
X1386383D01*
X1388049Y884537D01*
Y887869D01*
X1389716Y889536D01*
X1391382D01*
X1393048Y887869D01*
Y884537D01*
X1391382Y882871D01*
X1394714Y892868D02*
Y899532D01*
X1383051Y909529D02*
Y902865D01*
X1393048D01*
Y909529D01*
X1388049Y902865D02*
Y906197D01*
X1384717Y919526D02*
X1383051Y917860D01*
Y914528D01*
X1384717Y912861D01*
X1386383D01*
X1388049Y914528D01*
Y917860D01*
X1389716Y919526D01*
X1391382D01*
X1393048Y917860D01*
Y914528D01*
X1391382Y912861D01*
X1393048Y922858D02*
X1383051D01*
Y927857D01*
X1384717Y929523D01*
X1388049D01*
X1389716Y927857D01*
Y922858D01*
X1161908Y1569272D02*
Y1562608D01*
X1155243Y1569272D01*
X1153577D01*
X1151911Y1567606D01*
Y1564274D01*
X1153577Y1562608D01*
X1161908Y1577603D02*
X1151911D01*
X1156909Y1572605D01*
Y1579269D01*
X1151911Y1582602D02*
X1158576D01*
X1161908Y1585934D01*
X1158576Y1589266D01*
X1151911D01*
X1163574Y1592598D02*
Y1599263D01*
X1161908Y1602595D02*
X1151911D01*
Y1607594D01*
X1153577Y1609260D01*
X1156909D01*
X1158576Y1607594D01*
Y1602595D01*
X1155243Y1612592D02*
X1161908D01*
X1158576D01*
X1156909Y1614258D01*
X1155243Y1615924D01*
Y1617590D01*
X1161908Y1624255D02*
Y1627587D01*
X1160242Y1629253D01*
X1156909D01*
X1155243Y1627587D01*
Y1624255D01*
X1156909Y1622589D01*
X1160242D01*
X1161908Y1624255D01*
X1151911Y1632585D02*
X1161908D01*
Y1637584D01*
X1160242Y1639250D01*
X1158576D01*
X1156909D01*
X1155243Y1637584D01*
Y1632585D01*
X1161908Y1647581D02*
Y1644248D01*
X1160242Y1642582D01*
X1156909D01*
X1155243Y1644248D01*
Y1647581D01*
X1156909Y1649247D01*
X1158576D01*
Y1642582D01*
X1626474Y1565402D02*
Y1568734D01*
Y1567068D01*
X1616477D01*
X1618143Y1565402D01*
X1626474Y1580397D02*
Y1573733D01*
X1619809Y1580397D01*
X1618143D01*
X1616477Y1578731D01*
Y1575399D01*
X1618143Y1573733D01*
X1616477Y1583729D02*
X1623142D01*
X1626474Y1587062D01*
X1623142Y1590394D01*
X1616477D01*
X1628140Y1593726D02*
Y1600391D01*
X1626474Y1603723D02*
X1616477D01*
Y1608721D01*
X1618143Y1610388D01*
X1621476D01*
X1623142Y1608721D01*
Y1603723D01*
X1619809Y1613720D02*
X1626474D01*
X1623142D01*
X1621476Y1615386D01*
X1619809Y1617052D01*
Y1618718D01*
X1626474Y1625383D02*
Y1628715D01*
X1624808Y1630381D01*
X1621476D01*
X1619809Y1628715D01*
Y1625383D01*
X1621476Y1623716D01*
X1624808D01*
X1626474Y1625383D01*
X1616477Y1633713D02*
X1626474D01*
Y1638712D01*
X1624808Y1640378D01*
X1623142D01*
X1621476D01*
X1619809Y1638712D01*
Y1633713D01*
X1626474Y1648708D02*
Y1645376D01*
X1624808Y1643710D01*
X1621476D01*
X1619809Y1645376D01*
Y1648708D01*
X1621476Y1650375D01*
X1623142D01*
Y1643710D01*
X1169670Y699434D02*
X1176335D01*
X1173002Y702767D02*
Y696102D01*
X1186331Y704433D02*
X1179667D01*
Y699434D01*
X1182999Y701100D01*
X1184665D01*
X1186331Y699434D01*
Y696102D01*
X1184665Y694436D01*
X1181333D01*
X1179667Y696102D01*
X1189664Y704433D02*
Y697768D01*
X1192996Y694436D01*
X1196328Y697768D01*
Y704433D01*
X1443289Y703271D02*
X1441622Y704937D01*
X1438290D01*
X1436624Y703271D01*
Y696606D01*
X1438290Y694940D01*
X1441622D01*
X1443289Y696606D01*
Y699938D01*
X1439956D01*
X1446621Y694940D02*
Y704937D01*
X1453285Y694940D01*
Y704937D01*
X1456618D02*
Y694940D01*
X1461616D01*
X1463282Y696606D01*
Y703271D01*
X1461616Y704937D01*
X1456618D01*
X1376487Y696606D02*
X1369822D01*
X1376487Y703271D01*
Y704937D01*
X1374820Y706603D01*
X1371488D01*
X1369822Y704937D01*
X1384817Y696606D02*
Y706603D01*
X1379819Y701605D01*
X1386483D01*
X1389816Y706603D02*
Y699938D01*
X1393148Y696606D01*
X1396480Y699938D01*
Y706603D01*
X1399812Y694940D02*
X1406477D01*
X1416474Y704937D02*
X1414807Y706603D01*
X1411475D01*
X1409809Y704937D01*
Y698272D01*
X1411475Y696606D01*
X1414807D01*
X1416474Y698272D01*
X1426470Y704937D02*
X1424804Y706603D01*
X1421472D01*
X1419806Y704937D01*
Y703271D01*
X1421472Y701605D01*
X1424804D01*
X1426470Y699938D01*
Y698272D01*
X1424804Y696606D01*
X1421472D01*
X1419806Y698272D01*
X1330452Y699938D02*
X1337117D01*
X1333784Y703271D02*
Y696606D01*
X1347113Y704937D02*
X1340449D01*
Y699938D01*
X1343781Y701605D01*
X1345447D01*
X1347113Y699938D01*
Y696606D01*
X1345447Y694940D01*
X1342115D01*
X1340449Y696606D01*
X1350446Y704937D02*
Y698272D01*
X1353778Y694940D01*
X1357110Y698272D01*
Y704937D01*
X1286570Y703271D02*
X1284904Y704937D01*
X1281572D01*
X1279906Y703271D01*
Y696606D01*
X1281572Y694940D01*
X1284904D01*
X1286570Y696606D01*
Y699938D01*
X1283238D01*
X1289903Y694940D02*
Y704937D01*
X1296567Y694940D01*
Y704937D01*
X1299900D02*
Y694940D01*
X1304898D01*
X1306564Y696606D01*
Y703271D01*
X1304898Y704937D01*
X1299900D01*
X1210564Y696606D02*
X1213896D01*
X1212230D01*
Y706603D01*
X1210564Y704937D01*
X1225559Y696606D02*
X1218895D01*
X1225559Y703271D01*
Y704937D01*
X1223893Y706603D01*
X1220561D01*
X1218895Y704937D01*
X1228891Y706603D02*
Y699938D01*
X1232224Y696606D01*
X1235556Y699938D01*
Y706603D01*
X1238888Y694940D02*
X1245553D01*
X1255549Y704937D02*
X1253883Y706603D01*
X1250551D01*
X1248885Y704937D01*
Y698272D01*
X1250551Y696606D01*
X1253883D01*
X1255549Y698272D01*
X1265546Y704937D02*
X1263880Y706603D01*
X1260548D01*
X1258882Y704937D01*
Y703271D01*
X1260548Y701605D01*
X1263880D01*
X1265546Y699938D01*
Y698272D01*
X1263880Y696606D01*
X1260548D01*
X1258882Y698272D01*
X923290Y1435608D02*
X926622D01*
X924956D01*
Y1445605D01*
X923290Y1443939D01*
X938285Y1435608D02*
X931621D01*
X938285Y1442272D01*
Y1443939D01*
X936619Y1445605D01*
X933287D01*
X931621Y1443939D01*
X941617Y1445605D02*
Y1438940D01*
X944950Y1435608D01*
X948282Y1438940D01*
Y1445605D01*
X968276D02*
X961611D01*
Y1440606D01*
X964943D01*
X961611D01*
Y1435608D01*
X971608D02*
Y1442272D01*
X974940Y1445605D01*
X978272Y1442272D01*
Y1435608D01*
Y1440606D01*
X971608D01*
X981605Y1435608D02*
Y1445605D01*
X988269Y1435608D01*
Y1445605D01*
X1129090Y703275D02*
X1127424Y704941D01*
X1124092D01*
X1122426Y703275D01*
Y701609D01*
X1124092Y699942D01*
X1127424D01*
X1129090Y698276D01*
Y696610D01*
X1127424Y694944D01*
X1124092D01*
X1122426Y696610D01*
X1132423Y704941D02*
Y694944D01*
X1135755Y698276D01*
X1139087Y694944D01*
Y704941D01*
X1142420D02*
X1145752D01*
X1144086D01*
Y694944D01*
X1142420D01*
X1145752D01*
X1075751Y703021D02*
X1074084Y704687D01*
X1070752D01*
X1069086Y703021D01*
Y701355D01*
X1070752Y699688D01*
X1074084D01*
X1075751Y698022D01*
Y696356D01*
X1074084Y694690D01*
X1070752D01*
X1069086Y696356D01*
X1079083Y704687D02*
Y694690D01*
X1082415Y698022D01*
X1085747Y694690D01*
Y704687D01*
X1094078D02*
X1090746D01*
X1089080Y703021D01*
Y696356D01*
X1090746Y694690D01*
X1094078D01*
X1095744Y696356D01*
Y703021D01*
X1094078Y704687D01*
X1021902Y702259D02*
X1020236Y703925D01*
X1016904D01*
X1015238Y702259D01*
Y695594D01*
X1016904Y693928D01*
X1020236D01*
X1021902Y695594D01*
Y698926D01*
X1018570D01*
X1025235Y693928D02*
Y703925D01*
X1031899Y693928D01*
Y703925D01*
X1035232D02*
Y693928D01*
X1040230D01*
X1041896Y695594D01*
Y702259D01*
X1040230Y703925D01*
X1035232D01*
X953770Y699180D02*
X960434D01*
X957102Y702513D02*
Y695848D01*
X963767Y702513D02*
X965433Y704179D01*
X968765D01*
X970431Y702513D01*
Y700846D01*
X968765Y699180D01*
X967099D01*
X968765D01*
X970431Y697514D01*
Y695848D01*
X968765Y694182D01*
X965433D01*
X963767Y695848D01*
X973764Y694182D02*
Y695848D01*
X975430D01*
Y694182D01*
X973764D01*
X982094Y702513D02*
X983760Y704179D01*
X987093D01*
X988759Y702513D01*
Y700846D01*
X987093Y699180D01*
X985426D01*
X987093D01*
X988759Y697514D01*
Y695848D01*
X987093Y694182D01*
X983760D01*
X982094Y695848D01*
X992091Y704179D02*
Y697514D01*
X995423Y694182D01*
X998755Y697514D01*
Y704179D01*
X858774Y699180D02*
X865439D01*
X862106Y702513D02*
Y695848D01*
X875435Y704179D02*
X868771D01*
Y699180D01*
X872103Y700846D01*
X873769D01*
X875435Y699180D01*
Y695848D01*
X873769Y694182D01*
X870437D01*
X868771Y695848D01*
X878768Y704179D02*
Y697514D01*
X882100Y694182D01*
X885432Y697514D01*
Y704179D01*
X917508Y703021D02*
X915842Y704687D01*
X912510D01*
X910844Y703021D01*
Y696356D01*
X912510Y694690D01*
X915842D01*
X917508Y696356D01*
Y699688D01*
X914176D01*
X920841Y694690D02*
Y704687D01*
X927505Y694690D01*
Y704687D01*
X930838D02*
Y694690D01*
X935836D01*
X937502Y696356D01*
Y703021D01*
X935836Y704687D01*
X930838D01*
X1243076Y1673528D02*
X1249741D01*
X1246408Y1676861D02*
Y1670196D01*
X1253073Y1668530D02*
X1256405D01*
X1254739D01*
Y1678527D01*
X1253073Y1676861D01*
X1268068Y1668530D02*
X1261403D01*
X1268068Y1675195D01*
Y1676861D01*
X1266402Y1678527D01*
X1263070D01*
X1261403Y1676861D01*
X1271400Y1678527D02*
Y1671862D01*
X1274733Y1668530D01*
X1278065Y1671862D01*
Y1678527D01*
X1780053Y1229360D02*
Y1232692D01*
Y1231026D01*
X1790050D01*
Y1229360D01*
Y1232692D01*
Y1237691D02*
X1780053D01*
X1790050Y1244355D01*
X1780053D01*
Y1247687D02*
X1786718D01*
X1790050Y1251020D01*
X1786718Y1254352D01*
X1780053D01*
X1785052Y1257684D02*
Y1264349D01*
X1781719Y1261016D02*
X1788384D01*
X1791716Y1267681D02*
Y1274345D01*
X1781719Y1284342D02*
X1780053Y1282676D01*
Y1279344D01*
X1781719Y1277678D01*
X1783385D01*
X1785052Y1279344D01*
Y1282676D01*
X1786718Y1284342D01*
X1788384D01*
X1790050Y1282676D01*
Y1279344D01*
X1788384Y1277678D01*
X1780053Y1287675D02*
Y1291007D01*
Y1289341D01*
X1790050D01*
Y1287675D01*
Y1291007D01*
X1781719Y1302670D02*
X1780053Y1301004D01*
Y1297671D01*
X1781719Y1296005D01*
X1788384D01*
X1790050Y1297671D01*
Y1301004D01*
X1788384Y1302670D01*
X1785052D01*
Y1299337D01*
X1780307Y1313688D02*
Y1317020D01*
Y1315354D01*
X1790304D01*
Y1313688D01*
Y1317020D01*
Y1322019D02*
X1780307D01*
X1790304Y1328683D01*
X1780307D01*
Y1332015D02*
X1786972D01*
X1790304Y1335348D01*
X1786972Y1338680D01*
X1780307D01*
X1785305Y1342012D02*
Y1348677D01*
X1791970Y1352009D02*
Y1358674D01*
X1781973Y1368670D02*
X1780307Y1367004D01*
Y1363672D01*
X1781973Y1362006D01*
X1783639D01*
X1785305Y1363672D01*
Y1367004D01*
X1786972Y1368670D01*
X1788638D01*
X1790304Y1367004D01*
Y1363672D01*
X1788638Y1362006D01*
X1780307Y1372003D02*
Y1375335D01*
Y1373669D01*
X1790304D01*
Y1372003D01*
Y1375335D01*
X1781973Y1386998D02*
X1780307Y1385332D01*
Y1381999D01*
X1781973Y1380333D01*
X1788638D01*
X1790304Y1381999D01*
Y1385332D01*
X1788638Y1386998D01*
X1785305D01*
Y1383665D01*
X1204782Y1676861D02*
X1203116Y1678527D01*
X1199784D01*
X1198118Y1676861D01*
Y1670196D01*
X1199784Y1668530D01*
X1203116D01*
X1204782Y1670196D01*
Y1673528D01*
X1201450D01*
X1208115Y1668530D02*
Y1678527D01*
X1214779Y1668530D01*
Y1678527D01*
X1218112D02*
Y1668530D01*
X1223110D01*
X1224776Y1670196D01*
Y1676861D01*
X1223110Y1678527D01*
X1218112D01*
X1310701Y1676861D02*
X1309034Y1678527D01*
X1305702D01*
X1304036Y1676861D01*
Y1670196D01*
X1305702Y1668530D01*
X1309034D01*
X1310701Y1670196D01*
Y1673528D01*
X1307368D01*
X1314033Y1668530D02*
Y1678527D01*
X1320697Y1668530D01*
Y1678527D01*
X1324030D02*
Y1668530D01*
X1329028D01*
X1330694Y1670196D01*
Y1676861D01*
X1329028Y1678527D01*
X1324030D01*
X1560830Y1673528D02*
X1567495D01*
X1564162Y1676861D02*
Y1670196D01*
X1577491Y1668530D02*
X1570827D01*
X1577491Y1675195D01*
Y1676861D01*
X1575825Y1678527D01*
X1572493D01*
X1570827Y1676861D01*
X1585822Y1668530D02*
Y1678527D01*
X1580824Y1673528D01*
X1587488D01*
X1590820Y1678527D02*
Y1671862D01*
X1594153Y1668530D01*
X1597485Y1671862D01*
Y1678527D01*
X1350518Y1673528D02*
X1357182D01*
X1353850Y1676861D02*
Y1670196D01*
X1360515Y1668530D02*
X1363847D01*
X1362181D01*
Y1678527D01*
X1360515Y1676861D01*
X1375510Y1668530D02*
X1368845D01*
X1375510Y1675195D01*
Y1676861D01*
X1373844Y1678527D01*
X1370512D01*
X1368845Y1676861D01*
X1378842Y1678527D02*
Y1671862D01*
X1382175Y1668530D01*
X1385507Y1671862D01*
Y1678527D01*
X1415349Y1676861D02*
X1413682Y1678527D01*
X1410350D01*
X1408684Y1676861D01*
Y1670196D01*
X1410350Y1668530D01*
X1413682D01*
X1415349Y1670196D01*
Y1673528D01*
X1412016D01*
X1418681Y1668530D02*
Y1678527D01*
X1425345Y1668530D01*
Y1678527D01*
X1428678D02*
Y1668530D01*
X1433676D01*
X1435342Y1670196D01*
Y1676861D01*
X1433676Y1678527D01*
X1428678D01*
X1524315Y1676861D02*
X1522648Y1678527D01*
X1519316D01*
X1517650Y1676861D01*
Y1670196D01*
X1519316Y1668530D01*
X1522648D01*
X1524315Y1670196D01*
Y1673528D01*
X1520982D01*
X1527647Y1668530D02*
Y1678527D01*
X1534311Y1668530D01*
Y1678527D01*
X1537644D02*
Y1668530D01*
X1542642D01*
X1544308Y1670196D01*
Y1676861D01*
X1542642Y1678527D01*
X1537644D01*
X1454150Y1673528D02*
X1460815D01*
X1457482Y1676861D02*
Y1670196D01*
X1470811Y1668530D02*
X1464147D01*
X1470811Y1675195D01*
Y1676861D01*
X1469145Y1678527D01*
X1465813D01*
X1464147Y1676861D01*
X1479142Y1668530D02*
Y1678527D01*
X1474144Y1673528D01*
X1480808D01*
X1484140Y1678527D02*
Y1671862D01*
X1487473Y1668530D01*
X1490805Y1671862D01*
Y1678527D01*
X1146130Y881126D02*
Y887791D01*
X1142797Y884458D02*
X1149462D01*
X1151128Y897787D02*
Y891123D01*
X1144464Y897787D01*
X1142797D01*
X1141131Y896121D01*
Y892789D01*
X1142797Y891123D01*
X1151128Y906118D02*
X1141131D01*
X1146130Y901120D01*
Y907784D01*
X1141131Y911116D02*
X1147796D01*
X1151128Y914449D01*
X1147796Y917781D01*
X1141131D01*
X1007110Y902126D02*
X1013774D01*
X1010442Y905459D02*
Y898794D01*
X1017107Y897128D02*
X1020439D01*
X1018773D01*
Y907125D01*
X1017107Y905459D01*
X1032102Y897128D02*
X1025437D01*
X1032102Y903792D01*
Y905459D01*
X1030436Y907125D01*
X1027104D01*
X1025437Y905459D01*
X1035434Y907125D02*
Y900460D01*
X1038766Y897128D01*
X1042099Y900460D01*
Y907125D01*
X814750Y872225D02*
Y875558D01*
Y873892D01*
X806420D01*
X804754Y875558D01*
Y877224D01*
X806420Y878890D01*
X804754Y868893D02*
Y865561D01*
Y867227D01*
X814750D01*
X813084Y868893D01*
X814750Y853898D02*
Y860563D01*
X809752D01*
X811418Y857230D01*
Y855564D01*
X809752Y853898D01*
X806420D01*
X804754Y855564D01*
Y858896D01*
X806420Y860563D01*
X837356Y871463D02*
Y874796D01*
Y873130D01*
X829026D01*
X827360Y874796D01*
Y876462D01*
X829026Y878128D01*
X827360Y868131D02*
Y864799D01*
Y866465D01*
X837356D01*
X835690Y868131D01*
X827360Y854802D02*
X837356D01*
X832358Y859800D01*
Y853136D01*
X1382240Y804590D02*
X1378908D01*
X1380574D01*
Y796260D01*
X1378908Y794594D01*
X1377242D01*
X1375576Y796260D01*
X1385573Y794594D02*
X1388905D01*
X1387239D01*
Y804590D01*
X1385573Y802924D01*
X1393903D02*
X1395569Y804590D01*
X1398902D01*
X1400568Y802924D01*
Y801258D01*
X1398902Y799592D01*
X1397236D01*
X1398902D01*
X1400568Y797926D01*
Y796260D01*
X1398902Y794594D01*
X1395569D01*
X1393903Y796260D01*
X1507236Y1297173D02*
Y1281938D01*
X1514854D01*
X1517393Y1284477D01*
Y1294634D01*
X1514854Y1297173D01*
X1507236D01*
X1522471Y1294634D02*
X1525010Y1297173D01*
X1530089D01*
X1532628Y1294634D01*
Y1292095D01*
X1530089Y1289556D01*
X1527549D01*
X1530089D01*
X1532628Y1287016D01*
Y1284477D01*
X1530089Y1281938D01*
X1525010D01*
X1522471Y1284477D01*
X1016011Y1106962D02*
X1014344Y1108628D01*
X1011012D01*
X1009346Y1106962D01*
Y1100298D01*
X1011012Y1098632D01*
X1014344D01*
X1016011Y1100298D01*
X1019343Y1098632D02*
X1022675D01*
X1021009D01*
Y1108628D01*
X1019343Y1106962D01*
X1034338Y1098632D02*
X1027673D01*
X1034338Y1105296D01*
Y1106962D01*
X1032672Y1108628D01*
X1029340D01*
X1027673Y1106962D01*
X942747Y1105438D02*
X941081Y1107104D01*
X937748D01*
X936082Y1105438D01*
Y1098774D01*
X937748Y1097108D01*
X941081D01*
X942747Y1098774D01*
X946079Y1097108D02*
X949411D01*
X947745D01*
Y1107104D01*
X946079Y1105438D01*
X954410Y1097108D02*
X957742D01*
X956076D01*
Y1107104D01*
X954410Y1105438D01*
X1103509Y935400D02*
Y925404D01*
X1108507D01*
X1110173Y927070D01*
Y933734D01*
X1108507Y935400D01*
X1103509D01*
X1120170Y933734D02*
X1118504Y935400D01*
X1115172D01*
X1113506Y933734D01*
Y932068D01*
X1115172Y930402D01*
X1118504D01*
X1120170Y928736D01*
Y927070D01*
X1118504Y925404D01*
X1115172D01*
X1113506Y927070D01*
X1130167Y925404D02*
X1123503D01*
X1130167Y932068D01*
Y933734D01*
X1128501Y935400D01*
X1125169D01*
X1123503Y933734D01*
X1056661Y937686D02*
Y927690D01*
X1061659D01*
X1063326Y929356D01*
Y936020D01*
X1061659Y937686D01*
X1056661D01*
X1073322Y936020D02*
X1071656Y937686D01*
X1068324D01*
X1066658Y936020D01*
Y934354D01*
X1068324Y932688D01*
X1071656D01*
X1073322Y931022D01*
Y929356D01*
X1071656Y927690D01*
X1068324D01*
X1066658Y929356D01*
X1076655Y927690D02*
X1079987D01*
X1078321D01*
Y937686D01*
X1076655Y936020D01*
X908508Y846156D02*
Y856152D01*
X913506D01*
X915173Y854486D01*
Y851154D01*
X913506Y849488D01*
X908508D01*
X911840D02*
X915173Y846156D01*
X918505D02*
X921837D01*
X920171D01*
Y856152D01*
X918505Y854486D01*
X931834Y846156D02*
Y856152D01*
X926835Y851154D01*
X933500D01*
X907746Y879176D02*
Y889172D01*
X912744D01*
X914410Y887506D01*
Y884174D01*
X912744Y882508D01*
X907746D01*
X911078D02*
X914410Y879176D01*
X917743D02*
X921075D01*
X919409D01*
Y889172D01*
X917743Y887506D01*
X926074D02*
X927740Y889172D01*
X931072D01*
X932738Y887506D01*
Y885840D01*
X931072Y884174D01*
X929406D01*
X931072D01*
X932738Y882508D01*
Y880842D01*
X931072Y879176D01*
X927740D01*
X926074Y880842D01*
X988832Y1511330D02*
X987166Y1512996D01*
X983834D01*
X982168Y1511330D01*
Y1504666D01*
X983834Y1503000D01*
X987166D01*
X988832Y1504666D01*
X992165Y1503000D02*
X995497D01*
X993831D01*
Y1512996D01*
X992165Y1511330D01*
X1000496D02*
X1002162Y1512996D01*
X1005494D01*
X1007160Y1511330D01*
Y1504666D01*
X1005494Y1503000D01*
X1002162D01*
X1000496Y1504666D01*
Y1511330D01*
X924418D02*
X922752Y1512996D01*
X919419D01*
X917753Y1511330D01*
Y1504666D01*
X919419Y1503000D01*
X922752D01*
X924418Y1504666D01*
X927750D02*
X929416Y1503000D01*
X932748D01*
X934415Y1504666D01*
Y1511330D01*
X932748Y1512996D01*
X929416D01*
X927750Y1511330D01*
Y1509664D01*
X929416Y1507998D01*
X934415D01*
X1633444Y1385742D02*
Y1375746D01*
Y1379078D01*
X1640108Y1385742D01*
X1635110Y1380744D01*
X1640108Y1375746D01*
X1398442Y1017219D02*
X1390112D01*
X1388446Y1015553D01*
Y1012220D01*
X1390112Y1010554D01*
X1398442D01*
X1396776Y1007222D02*
X1398442Y1005556D01*
Y1002223D01*
X1396776Y1000557D01*
X1395110D01*
X1393444Y1002223D01*
Y1003890D01*
Y1002223D01*
X1391778Y1000557D01*
X1390112D01*
X1388446Y1002223D01*
Y1005556D01*
X1390112Y1007222D01*
X1397680Y1232865D02*
X1389350D01*
X1387684Y1231199D01*
Y1227866D01*
X1389350Y1226200D01*
X1397680D01*
X1387684Y1216203D02*
Y1222868D01*
X1394348Y1216203D01*
X1396014D01*
X1397680Y1217869D01*
Y1221202D01*
X1396014Y1222868D01*
X1510477Y1204386D02*
Y1196056D01*
X1512144Y1194390D01*
X1515476D01*
X1517142Y1196056D01*
Y1204386D01*
X1520474Y1194390D02*
X1523806D01*
X1522140D01*
Y1204386D01*
X1520474Y1202720D01*
X1133774Y948894D02*
X1123778D01*
Y953892D01*
X1125444Y955558D01*
X1128776D01*
X1130442Y953892D01*
Y948894D01*
Y952226D02*
X1133774Y955558D01*
Y958891D02*
Y962223D01*
Y960557D01*
X1123778D01*
X1125444Y958891D01*
X1133774Y973886D02*
Y967222D01*
X1127110Y973886D01*
X1125444D01*
X1123778Y972220D01*
Y968888D01*
X1125444Y967222D01*
X1081786Y1111504D02*
Y1121501D01*
X1086784D01*
X1088450Y1119835D01*
Y1116502D01*
X1086784Y1114836D01*
X1081786D01*
X1085118D02*
X1088450Y1111504D01*
X1091783D02*
X1095115D01*
X1093449D01*
Y1121501D01*
X1091783Y1119835D01*
X1100113Y1111504D02*
X1103446D01*
X1101780D01*
Y1121501D01*
X1100113Y1119835D01*
X1156716Y920242D02*
Y930239D01*
X1161714D01*
X1163381Y928573D01*
Y925240D01*
X1161714Y923574D01*
X1156716D01*
X1160048D02*
X1163381Y920242D01*
X1166713D02*
X1170045D01*
X1168379D01*
Y930239D01*
X1166713Y928573D01*
X1175043D02*
X1176710Y930239D01*
X1180042D01*
X1181708Y928573D01*
Y921908D01*
X1180042Y920242D01*
X1176710D01*
X1175043Y921908D01*
Y928573D01*
X1409364Y903021D02*
X1399368D01*
Y908020D01*
X1401034Y909686D01*
X1404366D01*
X1406032Y908020D01*
Y903021D01*
Y906354D02*
X1409364Y909686D01*
X1407698Y913018D02*
X1409364Y914684D01*
Y918017D01*
X1407698Y919683D01*
X1401034D01*
X1399368Y918017D01*
Y914684D01*
X1401034Y913018D01*
X1402700D01*
X1404366Y914684D01*
Y919683D01*
X1155446Y954786D02*
Y964783D01*
X1160444D01*
X1162111Y963117D01*
Y959784D01*
X1160444Y958118D01*
X1155446D01*
X1158778D02*
X1162111Y954786D01*
X1165443Y963117D02*
X1167109Y964783D01*
X1170441D01*
X1172107Y963117D01*
Y961451D01*
X1170441Y959784D01*
X1172107Y958118D01*
Y956452D01*
X1170441Y954786D01*
X1167109D01*
X1165443Y956452D01*
Y958118D01*
X1167109Y959784D01*
X1165443Y961451D01*
Y963117D01*
X1167109Y959784D02*
X1170441D01*
X1450004Y904545D02*
X1440008D01*
Y909544D01*
X1441674Y911210D01*
X1445006D01*
X1446672Y909544D01*
Y904545D01*
Y907878D02*
X1450004Y911210D01*
X1440008Y914542D02*
Y921207D01*
X1441674D01*
X1448338Y914542D01*
X1450004D01*
X867461Y1234522D02*
Y1244518D01*
X872460D01*
X874126Y1242852D01*
Y1239520D01*
X872460Y1237854D01*
X867461D01*
X870794D02*
X874126Y1234522D01*
X884123Y1244518D02*
X880790Y1242852D01*
X877458Y1239520D01*
Y1236188D01*
X879124Y1234522D01*
X882457D01*
X884123Y1236188D01*
Y1237854D01*
X882457Y1239520D01*
X877458D01*
X867461Y1276940D02*
Y1286936D01*
X872460D01*
X874126Y1285270D01*
Y1281938D01*
X872460Y1280272D01*
X867461D01*
X870794D02*
X874126Y1276940D01*
X884123Y1286936D02*
X877458D01*
Y1281938D01*
X880790Y1283604D01*
X882457D01*
X884123Y1281938D01*
Y1278606D01*
X882457Y1276940D01*
X879124D01*
X877458Y1278606D01*
X949249Y935056D02*
Y945052D01*
X954248D01*
X955914Y943386D01*
Y940054D01*
X954248Y938388D01*
X949249D01*
X952582D02*
X955914Y935056D01*
X964245D02*
Y945052D01*
X959246Y940054D01*
X965911D01*
X952805Y1114634D02*
Y1124630D01*
X957804D01*
X959470Y1122964D01*
Y1119632D01*
X957804Y1117966D01*
X952805D01*
X956138D02*
X959470Y1114634D01*
X962802Y1122964D02*
X964468Y1124630D01*
X967801D01*
X969467Y1122964D01*
Y1121298D01*
X967801Y1119632D01*
X966134D01*
X967801D01*
X969467Y1117966D01*
Y1116300D01*
X967801Y1114634D01*
X964468D01*
X962802Y1116300D01*
X862330Y1371346D02*
Y1381343D01*
X867328D01*
X868995Y1379677D01*
Y1376344D01*
X867328Y1374678D01*
X862330D01*
X865662D02*
X868995Y1371346D01*
X878991D02*
X872327D01*
X878991Y1378011D01*
Y1379677D01*
X877325Y1381343D01*
X873993D01*
X872327Y1379677D01*
X862330Y1326896D02*
Y1336893D01*
X867328D01*
X868995Y1335227D01*
Y1331894D01*
X867328Y1330228D01*
X862330D01*
X865662D02*
X868995Y1326896D01*
X872327D02*
X875659D01*
X873993D01*
Y1336893D01*
X872327Y1335227D01*
X1635312Y1335420D02*
Y1342085D01*
X1633646Y1343751D01*
X1630314D01*
X1628648Y1342085D01*
Y1335420D01*
X1630314Y1333754D01*
X1633646D01*
X1631980Y1337086D02*
X1635312Y1333754D01*
X1633646D02*
X1635312Y1335420D01*
X889254Y909290D02*
Y915954D01*
X887588Y917620D01*
X884256D01*
X882589Y915954D01*
Y909290D01*
X884256Y907624D01*
X887588D01*
X885922Y910956D02*
X889254Y907624D01*
X887588D02*
X889254Y909290D01*
X892586Y907624D02*
X895919D01*
X894252D01*
Y917620D01*
X892586Y915954D01*
X1565199Y1488104D02*
Y1478108D01*
X1571864D01*
X1581861D02*
X1575196D01*
X1581861Y1484772D01*
Y1486438D01*
X1580195Y1488104D01*
X1576862D01*
X1575196Y1486438D01*
X1171499Y1203116D02*
Y1193120D01*
X1178164D01*
X1188161Y1203116D02*
X1184828Y1201450D01*
X1181496Y1198118D01*
Y1194786D01*
X1183162Y1193120D01*
X1186495D01*
X1188161Y1194786D01*
Y1196452D01*
X1186495Y1198118D01*
X1181496D01*
X1599489Y1338244D02*
Y1328248D01*
X1606154D01*
X1614485D02*
Y1338244D01*
X1609486Y1333246D01*
X1616151D01*
X1208614Y1311342D02*
X1218610D01*
Y1318006D01*
Y1321338D02*
Y1324671D01*
Y1323004D01*
X1208614D01*
X1210280Y1321338D01*
X1305865Y1338498D02*
Y1328502D01*
X1312530D01*
X1315862Y1336832D02*
X1317528Y1338498D01*
X1320860D01*
X1322527Y1336832D01*
Y1335166D01*
X1320860Y1333500D01*
X1319194D01*
X1320860D01*
X1322527Y1331834D01*
Y1330168D01*
X1320860Y1328502D01*
X1317528D01*
X1315862Y1330168D01*
X1153465Y1144696D02*
Y1134700D01*
X1160130D01*
X1170127Y1144696D02*
X1163462D01*
Y1139698D01*
X1166794Y1141364D01*
X1168460D01*
X1170127Y1139698D01*
Y1136366D01*
X1168460Y1134700D01*
X1165128D01*
X1163462Y1136366D01*
X1304554Y805606D02*
X1301222D01*
X1302888D01*
Y797276D01*
X1301222Y795610D01*
X1299556D01*
X1297890Y797276D01*
X1307887Y795610D02*
X1311219D01*
X1309553D01*
Y805606D01*
X1307887Y803940D01*
X1322882Y795610D02*
X1316217D01*
X1322882Y802274D01*
Y803940D01*
X1321216Y805606D01*
X1317884D01*
X1316217Y803940D01*
X1174433Y808908D02*
X1171100D01*
X1172767D01*
Y800578D01*
X1171100Y798912D01*
X1169434D01*
X1167768Y800578D01*
X1177765Y798912D02*
X1181097D01*
X1179431D01*
Y808908D01*
X1177765Y807242D01*
X1186096Y798912D02*
X1189428D01*
X1187762D01*
Y808908D01*
X1186096Y807242D01*
X1101587Y1229804D02*
X1104920D01*
X1103253D01*
Y1238134D01*
X1104920Y1239800D01*
X1106586D01*
X1108252Y1238134D01*
X1098255Y1239800D02*
X1094923D01*
X1096589D01*
Y1229804D01*
X1098255Y1231470D01*
X1089924D02*
X1088258Y1229804D01*
X1084926D01*
X1083260Y1231470D01*
Y1238134D01*
X1084926Y1239800D01*
X1088258D01*
X1089924Y1238134D01*
Y1231470D01*
X953323Y810351D02*
X949990D01*
X951656D01*
Y802020D01*
X949990Y800354D01*
X948324D01*
X946658Y802020D01*
X956655D02*
X958321Y800354D01*
X961653D01*
X963319Y802020D01*
Y808685D01*
X961653Y810351D01*
X958321D01*
X956655Y808685D01*
Y807019D01*
X958321Y805352D01*
X963319D01*
X848167Y810351D02*
X844834D01*
X846500D01*
Y802020D01*
X844834Y800354D01*
X843168D01*
X841502Y802020D01*
X851499Y808685D02*
X853165Y810351D01*
X856497D01*
X858163Y808685D01*
Y807019D01*
X856497Y805352D01*
X858163Y803686D01*
Y802020D01*
X856497Y800354D01*
X853165D01*
X851499Y802020D01*
Y803686D01*
X853165Y805352D01*
X851499Y807019D01*
Y808685D01*
X853165Y805352D02*
X856497D01*
X1058224Y810351D02*
X1054892D01*
X1056558D01*
Y802020D01*
X1054892Y800354D01*
X1053226D01*
X1051560Y802020D01*
X1061557Y810351D02*
X1068221D01*
Y808685D01*
X1061557Y802020D01*
Y800354D01*
X1305164Y1575226D02*
X1301832D01*
X1303498D01*
Y1566896D01*
X1301832Y1565230D01*
X1300166D01*
X1298499Y1566896D01*
X1315161Y1575226D02*
X1311828Y1573560D01*
X1308496Y1570228D01*
Y1566896D01*
X1310162Y1565230D01*
X1313495D01*
X1315161Y1566896D01*
Y1568562D01*
X1313495Y1570228D01*
X1308496D01*
X1197976Y1576242D02*
X1194644D01*
X1196310D01*
Y1567912D01*
X1194644Y1566246D01*
X1192978D01*
X1191311Y1567912D01*
X1207973Y1576242D02*
X1201308D01*
Y1571244D01*
X1204640Y1572910D01*
X1206307D01*
X1207973Y1571244D01*
Y1567912D01*
X1206307Y1566246D01*
X1202974D01*
X1201308Y1567912D01*
X1682578Y1348344D02*
Y1345012D01*
Y1346678D01*
X1690908D01*
X1692574Y1345012D01*
Y1343345D01*
X1690908Y1341679D01*
X1692574Y1356674D02*
X1682578D01*
X1687576Y1351676D01*
Y1358341D01*
X1511158Y1575988D02*
X1507826D01*
X1509492D01*
Y1567658D01*
X1507826Y1565992D01*
X1506160D01*
X1504493Y1567658D01*
X1514490Y1574322D02*
X1516156Y1575988D01*
X1519489D01*
X1521155Y1574322D01*
Y1572656D01*
X1519489Y1570990D01*
X1517822D01*
X1519489D01*
X1521155Y1569324D01*
Y1567658D01*
X1519489Y1565992D01*
X1516156D01*
X1514490Y1567658D01*
X1408796Y1575226D02*
X1405464D01*
X1407130D01*
Y1566896D01*
X1405464Y1565230D01*
X1403797D01*
X1402131Y1566896D01*
X1418793Y1565230D02*
X1412128D01*
X1418793Y1571894D01*
Y1573560D01*
X1417126Y1575226D01*
X1413794D01*
X1412128Y1573560D01*
X946322Y1183132D02*
Y1186464D01*
Y1184798D01*
X937992D01*
X936326Y1186464D01*
Y1188130D01*
X937992Y1189797D01*
X936326Y1179800D02*
Y1176468D01*
Y1178134D01*
X946322D01*
X944656Y1179800D01*
X956869Y1022522D02*
Y1012526D01*
X961868D01*
X963534Y1014192D01*
Y1020856D01*
X961868Y1022522D01*
X956869D01*
X973531Y1012526D02*
X966866D01*
X973531Y1019190D01*
Y1020856D01*
X971864Y1022522D01*
X968532D01*
X966866Y1020856D01*
X967171Y1199814D02*
Y1189818D01*
X972170D01*
X973836Y1191484D01*
Y1198148D01*
X972170Y1199814D01*
X967171D01*
X977168Y1189818D02*
X980500D01*
X978834D01*
Y1199814D01*
X977168Y1198148D01*
X1214486Y803178D02*
X1212820Y804844D01*
X1209488D01*
X1207821Y803178D01*
Y796514D01*
X1209488Y794848D01*
X1212820D01*
X1214486Y796514D01*
X1217818Y803178D02*
X1219484Y804844D01*
X1222816D01*
X1224483Y803178D01*
Y801512D01*
X1222816Y799846D01*
X1224483Y798180D01*
Y796514D01*
X1222816Y794848D01*
X1219484D01*
X1217818Y796514D01*
Y798180D01*
X1219484Y799846D01*
X1217818Y801512D01*
Y803178D01*
X1219484Y799846D02*
X1222816D01*
X1394684Y974964D02*
X1393018Y973298D01*
Y969966D01*
X1394684Y968299D01*
X1401348D01*
X1403014Y969966D01*
Y973298D01*
X1401348Y974964D01*
X1393018Y978296D02*
Y984961D01*
X1394684D01*
X1401348Y978296D01*
X1403014D01*
X1214435Y1131011D02*
X1212768Y1132677D01*
X1209436D01*
X1207770Y1131011D01*
Y1124346D01*
X1209436Y1122680D01*
X1212768D01*
X1214435Y1124346D01*
X1224431Y1132677D02*
X1221099Y1131011D01*
X1217767Y1127678D01*
Y1124346D01*
X1219433Y1122680D01*
X1222765D01*
X1224431Y1124346D01*
Y1126012D01*
X1222765Y1127678D01*
X1217767D01*
X1399398Y1250980D02*
X1397732Y1252646D01*
X1394400D01*
X1392733Y1250980D01*
Y1244316D01*
X1394400Y1242650D01*
X1397732D01*
X1399398Y1244316D01*
X1409395Y1252646D02*
X1402730D01*
Y1247648D01*
X1406062Y1249314D01*
X1407728D01*
X1409395Y1247648D01*
Y1244316D01*
X1407728Y1242650D01*
X1404396D01*
X1402730Y1244316D01*
X1396716Y1058276D02*
X1395050Y1056610D01*
Y1053278D01*
X1396716Y1051611D01*
X1403380D01*
X1405046Y1053278D01*
Y1056610D01*
X1403380Y1058276D01*
X1405046Y1066607D02*
X1395050D01*
X1400048Y1061608D01*
Y1068273D01*
X1396462Y1138032D02*
X1394796Y1136366D01*
Y1133034D01*
X1396462Y1131367D01*
X1403126D01*
X1404792Y1133034D01*
Y1136366D01*
X1403126Y1138032D01*
X1396462Y1141364D02*
X1394796Y1143030D01*
Y1146363D01*
X1396462Y1148029D01*
X1398128D01*
X1399794Y1146363D01*
Y1144696D01*
Y1146363D01*
X1401460Y1148029D01*
X1403126D01*
X1404792Y1146363D01*
Y1143030D01*
X1403126Y1141364D01*
X1207120Y1028476D02*
X1205454Y1030142D01*
X1202122D01*
X1200455Y1028476D01*
Y1021812D01*
X1202122Y1020146D01*
X1205454D01*
X1207120Y1021812D01*
X1217117Y1020146D02*
X1210452D01*
X1217117Y1026810D01*
Y1028476D01*
X1215451Y1030142D01*
X1212118D01*
X1210452Y1028476D01*
X1214435Y1223467D02*
X1212768Y1225133D01*
X1209436D01*
X1207770Y1223467D01*
Y1216802D01*
X1209436Y1215136D01*
X1212768D01*
X1214435Y1216802D01*
X1217767Y1215136D02*
X1221099D01*
X1219433D01*
Y1225133D01*
X1217767Y1223467D01*
X1155670Y1113760D02*
X1162334Y1120424D01*
Y1113760D02*
X1155670Y1120424D01*
X1159002Y1113760D02*
Y1120424D01*
X1162334Y1117092D02*
X1155670D01*
X1202995Y872266D02*
X1209660Y865602D01*
X1202995D02*
X1209660Y872266D01*
X1202995Y868934D02*
X1209660D01*
X1206328Y865602D02*
Y872266D01*
X1212992Y873932D02*
X1219657D01*
Y872266D01*
X1212992Y865602D01*
Y863936D01*
X1414831Y940338D02*
X1421496Y933674D01*
X1414831D02*
X1421496Y940338D01*
X1414831Y937006D02*
X1421496D01*
X1418164Y933674D02*
Y940338D01*
X1431493Y942004D02*
X1428160Y940338D01*
X1424828Y937006D01*
Y933674D01*
X1426494Y932008D01*
X1429827D01*
X1431493Y933674D01*
Y935340D01*
X1429827Y937006D01*
X1424828D01*
X1200455Y818926D02*
X1207120Y812262D01*
X1200455D02*
X1207120Y818926D01*
X1200455Y815594D02*
X1207120D01*
X1203788Y812262D02*
Y818926D01*
X1217117Y820592D02*
X1210452D01*
Y815594D01*
X1213784Y817260D01*
X1215451D01*
X1217117Y815594D01*
Y812262D01*
X1215451Y810596D01*
X1212118D01*
X1210452Y812262D01*
X1481866Y759917D02*
X1475202Y753252D01*
Y759917D02*
X1481866Y753252D01*
X1478534Y759917D02*
Y753252D01*
X1475202Y756584D02*
X1481866D01*
X1473536Y744921D02*
X1483532D01*
X1478534Y749920D01*
Y743255D01*
X1633017Y1675414D02*
X1639682Y1668750D01*
X1633017D02*
X1639682Y1675414D01*
X1633017Y1672082D02*
X1639682D01*
X1636350Y1668750D02*
Y1675414D01*
X1643014D02*
X1644680Y1677080D01*
X1648013D01*
X1649679Y1675414D01*
Y1673748D01*
X1648013Y1672082D01*
X1646346D01*
X1648013D01*
X1649679Y1670416D01*
Y1668750D01*
X1648013Y1667084D01*
X1644680D01*
X1643014Y1668750D01*
X1168959Y1672874D02*
X1175624Y1666210D01*
X1168959D02*
X1175624Y1672874D01*
X1168959Y1669542D02*
X1175624D01*
X1172292Y1666210D02*
Y1672874D01*
X1185621Y1664544D02*
X1178956D01*
X1185621Y1671208D01*
Y1672874D01*
X1183954Y1674540D01*
X1180622D01*
X1178956Y1672874D01*
X1476696Y1257330D02*
X1483360Y1250666D01*
X1476696D02*
X1483360Y1257330D01*
X1476696Y1253998D02*
X1483360D01*
X1480028Y1250666D02*
Y1257330D01*
X1486692Y1249000D02*
X1490025D01*
X1488358D01*
Y1258996D01*
X1486692Y1257330D01*
M02*
